<svg width="55" height="55" viewBox="0 0 55 55" fill="none" xmlns="http://www.w3.org/2000/svg">
<circle cx="27.5" cy="27.5" r="27.5" fill="#E7ECFF"/>
<ellipse cx="27" cy="33.5" rx="7" ry="3.5" stroke="#406AF6" stroke-width="1.5" stroke-linejoin="round"/>
<circle cx="27" cy="23" r="4" stroke="#406AF6" stroke-width="1.5" stroke-linejoin="round"/>
<path d="M33 24H39V27.966C39 28.626 38.666 29.2433 38.1093 29.6093L36 30.9987L33.8907 29.6093C33.6178 29.4307 33.3935 29.1871 33.238 28.9004C33.0826 28.6137 33.0008 28.2928 33 27.9667V24ZM34.3333 27.966C34.3333 28.1767 34.4413 28.3753 34.624 28.496L36 29.4027L37.376 28.496C37.4646 28.4387 37.5376 28.3603 37.5883 28.2677C37.6391 28.1752 37.666 28.0715 37.6667 27.966V25.3333H34.3333V27.966Z" fill="#406AF6"/>
</svg>
