<svg width="55" height="55" viewBox="0 0 55 55" fill="none" xmlns="http://www.w3.org/2000/svg">
<circle cx="27.5" cy="27.5" r="27.5" fill="#E7ECFF"/>
<path d="M33 24H35C36.1046 24 37 24.8954 37 26V35C37 36.1046 36.1046 37 35 37H33C31.8954 37 31 36.1046 31 35V26C31 24.8954 31.8954 24 33 24Z" stroke="#406AF6" stroke-width="1.5" stroke-linecap="round" stroke-linejoin="round"/>
<path d="M23.1231 37H26.7889C27.5786 37 28.3506 36.7662 29.0077 36.3282L30.5547 35.2969C30.8329 35.1114 31 34.7992 31 34.4648V26.2656C31 26.0915 30.9546 25.9205 30.8682 25.7694L27 19H25.6713C23.6745 19 22.4836 21.2254 23.5912 22.8867L25 25H19.5615C18.2604 25 17.3057 26.2228 17.6213 27.4851L19.2425 33.9701C19.6877 35.7508 21.2876 37 23.1231 37Z" stroke="#406AF6" stroke-width="1.5" stroke-linecap="round" stroke-linejoin="round"/>
</svg>
