<svg width="55" height="55" viewBox="0 0 55 55" fill="none" xmlns="http://www.w3.org/2000/svg">
<circle cx="27.5" cy="27.5" r="27.5" fill="#E7ECFF"/>
<path d="M22 28L24.2 29.65C25.2667 30.45 26.7333 30.45 27.8 29.65L30 28M21 37H31C32.6569 37 34 35.6569 34 34V26C34 24.3431 32.6569 23 31 23H21C19.3431 23 18 24.3431 18 26V34C18 35.6569 19.3431 37 21 37Z" stroke="#406AF6" stroke-width="1.5" stroke-linecap="round" stroke-linejoin="round"/>
<path d="M38.0769 21.0769C38.4374 21.4374 39 22 39 22M38.5385 18.7692C38.5385 20.2986 37.2986 21.5385 35.7692 21.5385C34.2398 21.5385 33 20.2986 33 18.7692C33 17.2398 34.2398 16 35.7692 16C37.2986 16 38.5385 17.2398 38.5385 18.7692Z" stroke="#406AF6" stroke-width="1.5" stroke-linecap="round"/>
</svg>
