<?xml version="1.0" encoding="UTF-8" standalone="no"?>
<svg
   width="55"
   height="55"
   viewBox="0 0 55 55"
   fill="none"
   version="1.1"
   id="svg4"
   sodipodi:docname="work3.svg"
   inkscape:version="1.2.2 (b0a8486, 2022-12-01)"
   xmlns:inkscape="http://www.inkscape.org/namespaces/inkscape"
   xmlns:sodipodi="http://sodipodi.sourceforge.net/DTD/sodipodi-0.dtd"
   xmlns="http://www.w3.org/2000/svg"
   xmlns:svg="http://www.w3.org/2000/svg">
  <defs
     id="defs8" />
  <sodipodi:namedview
     id="namedview6"
     pagecolor="#ffffff"
     bordercolor="#000000"
     borderopacity="0.25"
     inkscape:showpageshadow="2"
     inkscape:pageopacity="0.0"
     inkscape:pagecheckerboard="0"
     inkscape:deskcolor="#d1d1d1"
     showgrid="false"
     inkscape:zoom="4.2909091"
     inkscape:cx="25.752119"
     inkscape:cy="22.838983"
     inkscape:window-width="1440"
     inkscape:window-height="456"
     inkscape:window-x="0"
     inkscape:window-y="23"
     inkscape:window-maximized="0"
     inkscape:current-layer="svg4" />
  <path
     fill="#e7ecff"
     id="circle2"
     sodipodi:type="arc"
     sodipodi:cx="27.966101"
     sodipodi:cy="26.567797"
     sodipodi:rx="27.033897"
     sodipodi:ry="26.101696"
     sodipodi:start="0"
     sodipodi:end="6.2754756"
     sodipodi:arc-type="slice"
     d="M 54.999998,26.567797 A 27.033897,26.101696 0 0 1 28.018207,52.669444 27.033897,26.101696 0 0 1 0.93240415,26.668415 27.033897,26.101696 0 0 1 27.809784,0.46653704 27.033897,26.101696 0 0 1 54.999195,26.366562 l -27.033094,0.201235 z" />
  <path
     d="m 32.291465,18.61124 -9.252247,7.74364 c -1.277468,1.069204 -1.277468,2.802666 0,3.871871 1.277467,1.069204 3.348655,1.069204 4.626123,0 l 9.2523,-7.743683 c 2.554831,-2.13835 2.554831,-5.605306 0,-7.743655 -2.555005,-2.13835 -6.697365,-2.13835 -9.2523,0 l -9.252247,7.743655 c -3.832396,3.207553 -3.832392,8.407942 1.7e-5,11.615408 3.832404,3.207612 10.04595,3.207612 13.878354,0 l 9.252178,-7.743596"
     stroke="#406af6"
     stroke-width="2.38062"
     stroke-linecap="round"
     stroke-linejoin="round"
     id="path10" />
</svg>
