<svg width="14" height="10" viewBox="0 0 14 10" fill="none" xmlns="http://www.w3.org/2000/svg">
<path d="M5.486 9.72989C5.35473 9.73016 5.22471 9.7045 5.10338 9.6544C4.98206 9.60429 4.87182 9.53071 4.779 9.43789L0.536999 5.19489C0.441426 5.10271 0.365168 4.99242 0.312675 4.87046C0.260181 4.74849 0.232503 4.61729 0.231257 4.48451C0.23001 4.35174 0.255219 4.22004 0.305413 4.09711C0.355607 3.97418 0.42978 3.86248 0.523606 3.76852C0.617431 3.67456 0.72903 3.60023 0.851889 3.54986C0.974748 3.49949 1.10641 3.4741 1.23919 3.47516C1.37197 3.47622 1.5032 3.50371 1.62525 3.55603C1.74729 3.60835 1.85768 3.68445 1.95 3.77989L5.485 7.31489L11.85 0.951894C12.0375 0.764253 12.2919 0.658785 12.5571 0.658691C12.8224 0.658598 13.0769 0.763886 13.2645 0.951394C13.4521 1.1389 13.5576 1.39327 13.5577 1.65854C13.5578 1.92381 13.4525 2.17825 13.265 2.36589L6.193 9.43789C6.10018 9.53071 5.98994 9.60429 5.86862 9.6544C5.74729 9.7045 5.61727 9.73016 5.486 9.72989Z" fill="#3982F5"/>
</svg>
