<svg width="32" height="32" viewBox="0 0 32 32" fill="none" xmlns="http://www.w3.org/2000/svg">
<circle cx="16" cy="16" r="16" fill="#406AF6"/>
<g clip-path="url(#clip0_1104_1587)">
<path d="M20.2426 18.3568L19.2999 17.4128L20.2426 16.4702C20.5543 16.1611 20.802 15.7936 20.9713 15.3886C21.1406 14.9836 21.2283 14.5491 21.2292 14.1101C21.2302 13.6712 21.1445 13.2363 20.9769 12.8306C20.8094 12.4249 20.5633 12.0562 20.2529 11.7458C19.9425 11.4354 19.5739 11.1894 19.1682 11.0219C18.7624 10.8543 18.3276 10.7686 17.8886 10.7695C17.4496 10.7705 17.0152 10.8581 16.6102 11.0275C16.2052 11.1968 15.8376 11.4444 15.5286 11.7562L14.5859 12.6995L13.6426 11.7568L14.5866 10.8142C15.4618 9.93896 16.6489 9.44727 17.8866 9.44727C19.1243 9.44727 20.3114 9.93896 21.1866 10.8142C22.0618 11.6894 22.5535 12.8764 22.5535 14.1142C22.5535 15.3519 22.0618 16.539 21.1866 17.4142L20.2426 18.3568ZM18.3573 20.2422L17.4139 21.1848C16.5387 22.0601 15.3517 22.5517 14.1139 22.5517C12.8762 22.5517 11.6891 22.0601 10.8139 21.1848C9.93871 20.3096 9.44702 19.1226 9.44702 17.8848C9.44702 16.6471 9.93871 15.4601 10.8139 14.5848L11.7573 13.6422L12.6999 14.5862L11.7573 15.5288C11.4455 15.8379 11.1979 16.2054 11.0285 16.6104C10.8592 17.0154 10.7716 17.4499 10.7706 17.8889C10.7697 18.3278 10.8554 18.7627 11.0229 19.1684C11.1905 19.5741 11.4365 19.9428 11.7469 20.2532C12.0573 20.5636 12.426 20.8096 12.8317 20.9772C13.2374 21.1447 13.6723 21.2304 14.1112 21.2295C14.5502 21.2285 14.9847 21.1409 15.3897 20.9716C15.7947 20.8022 16.1622 20.5546 16.4713 20.2428L17.4139 19.3002L18.3573 20.2422ZM17.8853 13.1708L18.8286 14.1142L14.1146 18.8275L13.1713 17.8848L17.8853 13.1708Z" fill="white"/>
</g>
<defs>
<clipPath id="clip0_1104_1587">
<rect width="16" height="16" fill="white" transform="translate(8 8)"/>
</clipPath>
</defs>
</svg>
