<svg width="20" height="20" viewBox="0 0 20 20" fill="none" xmlns="http://www.w3.org/2000/svg">
<g clip-path="url(#clip0_614_3580)">
<path d="M10 0.833496L16.8475 2.35516C17.2283 2.44016 17.5 2.77766 17.5 3.1685V11.491C17.5 13.1627 16.6642 14.7243 15.2733 15.651L10 19.1668L4.72667 15.651C3.335 14.7235 2.5 13.1627 2.5 11.4918V3.1685C2.5 2.77766 2.77167 2.44016 3.1525 2.35516L10 0.833496ZM10 2.541L4.16667 3.83683V11.491C4.16667 12.6052 4.72333 13.646 5.65083 14.2643L10 17.1643L14.3492 14.2643C15.2767 13.646 15.8333 12.606 15.8333 11.4918V3.83683L10 2.54183V2.541ZM13.71 6.85183L14.8892 8.03016L9.58583 13.3335L6.05 9.79766L7.22833 8.61933L9.585 10.976L13.71 6.851V6.85183Z" fill="#64A166"/>
</g>
<defs>
<clipPath id="clip0_614_3580">
<rect width="20" height="20" fill="white"/>
</clipPath>
</defs>
</svg>
