<svg width="387" height="499" viewBox="0 0 387 499" fill="none" xmlns="http://www.w3.org/2000/svg">
<rect y="346" width="283" height="153" fill="#F7F7F8"/>
<path d="M26.52 450.72H33.34C34.9133 450.72 36.0933 451.06 36.88 451.74C37.6667 452.42 38.06 453.367 38.06 454.58C38.06 455.26 37.96 455.827 37.76 456.28C37.56 456.72 37.3267 457.08 37.06 457.36C36.7933 457.627 36.5267 457.82 36.26 457.94C36.0067 458.06 35.82 458.14 35.7 458.18V458.22C35.9133 458.247 36.14 458.313 36.38 458.42C36.6333 458.527 36.8667 458.7 37.08 458.94C37.2933 459.167 37.4667 459.467 37.6 459.84C37.7467 460.213 37.82 460.68 37.82 461.24C37.82 462.08 37.88 462.847 38 463.54C38.1333 464.22 38.3333 464.707 38.6 465H35.92C35.7333 464.693 35.62 464.353 35.58 463.98C35.5533 463.607 35.54 463.247 35.54 462.9C35.54 462.247 35.5 461.687 35.42 461.22C35.34 460.74 35.1933 460.347 34.98 460.04C34.7667 459.72 34.4733 459.487 34.1 459.34C33.74 459.193 33.2733 459.12 32.7 459.12H29.02V465H26.52V450.72ZM29.02 457.22H33.12C33.92 457.22 34.5267 457.033 34.94 456.66C35.3533 456.273 35.56 455.7 35.56 454.94C35.56 454.487 35.4933 454.12 35.36 453.84C35.2267 453.547 35.04 453.32 34.8 453.16C34.5733 453 34.3067 452.893 34 452.84C33.7067 452.787 33.4 452.76 33.08 452.76H29.02V457.22ZM47.182 458.92C47.1554 458.56 47.0754 458.213 46.942 457.88C46.822 457.547 46.6487 457.26 46.422 457.02C46.2087 456.767 45.942 456.567 45.622 456.42C45.3154 456.26 44.9687 456.18 44.582 456.18C44.182 456.18 43.8154 456.253 43.482 456.4C43.162 456.533 42.882 456.727 42.642 456.98C42.4154 457.22 42.2287 457.507 42.082 457.84C41.9487 458.173 41.8754 458.533 41.862 458.92H47.182ZM41.862 460.42C41.862 460.82 41.9154 461.207 42.022 461.58C42.142 461.953 42.3154 462.28 42.542 462.56C42.7687 462.84 43.0554 463.067 43.402 463.24C43.7487 463.4 44.162 463.48 44.642 463.48C45.3087 463.48 45.842 463.34 46.242 463.06C46.6554 462.767 46.962 462.333 47.162 461.76H49.322C49.202 462.32 48.9954 462.82 48.702 463.26C48.4087 463.7 48.0554 464.073 47.642 464.38C47.2287 464.673 46.762 464.893 46.242 465.04C45.7354 465.2 45.202 465.28 44.642 465.28C43.8287 465.28 43.1087 465.147 42.482 464.88C41.8554 464.613 41.322 464.24 40.882 463.76C40.4554 463.28 40.1287 462.707 39.902 462.04C39.6887 461.373 39.582 460.64 39.582 459.84C39.582 459.107 39.6954 458.413 39.922 457.76C40.162 457.093 40.4954 456.513 40.922 456.02C41.362 455.513 41.8887 455.113 42.502 454.82C43.1154 454.527 43.8087 454.38 44.582 454.38C45.3954 454.38 46.122 454.553 46.762 454.9C47.4154 455.233 47.9554 455.68 48.382 456.24C48.8087 456.8 49.1154 457.447 49.302 458.18C49.502 458.9 49.5554 459.647 49.462 460.42H41.862ZM57.9753 458.12C57.882 457.48 57.622 457 57.1953 456.68C56.782 456.347 56.2553 456.18 55.6153 456.18C55.322 456.18 55.0086 456.233 54.6753 456.34C54.342 456.433 54.0353 456.62 53.7553 456.9C53.4753 457.167 53.242 457.547 53.0553 458.04C52.8686 458.52 52.7753 459.153 52.7753 459.94C52.7753 460.367 52.822 460.793 52.9153 461.22C53.022 461.647 53.182 462.027 53.3953 462.36C53.622 462.693 53.9086 462.967 54.2553 463.18C54.602 463.38 55.022 463.48 55.5153 463.48C56.182 463.48 56.7286 463.273 57.1553 462.86C57.5953 462.447 57.8686 461.867 57.9753 461.12H60.2553C60.042 462.467 59.5286 463.5 58.7153 464.22C57.9153 464.927 56.8486 465.28 55.5153 465.28C54.702 465.28 53.982 465.147 53.3553 464.88C52.742 464.6 52.222 464.227 51.7953 463.76C51.3686 463.28 51.042 462.713 50.8153 462.06C50.602 461.407 50.4953 460.7 50.4953 459.94C50.4953 459.167 50.602 458.44 50.8153 457.76C51.0286 457.08 51.3486 456.493 51.7753 456C52.202 455.493 52.7286 455.1 53.3553 454.82C53.9953 454.527 54.742 454.38 55.5953 454.38C56.1953 454.38 56.762 454.46 57.2953 454.62C57.842 454.767 58.322 454.993 58.7353 455.3C59.162 455.607 59.5086 455.993 59.7753 456.46C60.042 456.927 60.202 457.48 60.2553 458.12H57.9753ZM61.9686 450.72H64.2486V452.88H61.9686V450.72ZM61.9686 454.66H64.2486V465H61.9686V454.66ZM66.5928 454.66H68.7528V456.06H68.7928C69.1128 455.46 69.5595 455.033 70.1328 454.78C70.7061 454.513 71.3261 454.38 71.9928 454.38C72.8061 454.38 73.5128 454.527 74.1128 454.82C74.7261 455.1 75.2328 455.493 75.6328 456C76.0328 456.493 76.3328 457.073 76.5328 457.74C76.7328 458.407 76.8328 459.12 76.8328 459.88C76.8328 460.573 76.7395 461.247 76.5528 461.9C76.3795 462.553 76.1061 463.133 75.7328 463.64C75.3728 464.133 74.9128 464.533 74.3528 464.84C73.7928 465.133 73.1328 465.28 72.3728 465.28C72.0395 465.28 71.7061 465.247 71.3728 465.18C71.0395 465.127 70.7195 465.033 70.4128 464.9C70.1061 464.767 69.8195 464.6 69.5528 464.4C69.2995 464.187 69.0861 463.94 68.9128 463.66H68.8728V468.82H66.5928V454.66ZM74.5528 459.84C74.5528 459.373 74.4928 458.92 74.3728 458.48C74.2528 458.04 74.0728 457.653 73.8328 457.32C73.5928 456.973 73.2928 456.7 72.9328 456.5C72.5728 456.287 72.1595 456.18 71.6928 456.18C70.7328 456.18 70.0061 456.513 69.5128 457.18C69.0328 457.847 68.7928 458.733 68.7928 459.84C68.7928 460.36 68.8528 460.847 68.9728 461.3C69.1061 461.74 69.2995 462.12 69.5528 462.44C69.8061 462.76 70.1061 463.013 70.4528 463.2C70.8128 463.387 71.2261 463.48 71.6928 463.48C72.2128 463.48 72.6528 463.373 73.0128 463.16C73.3728 462.947 73.6661 462.673 73.8928 462.34C74.1328 461.993 74.2995 461.607 74.3928 461.18C74.4995 460.74 74.5528 460.293 74.5528 459.84ZM78.6194 450.72H80.8994V452.88H78.6194V450.72ZM78.6194 454.66H80.8994V465H78.6194V454.66ZM90.2836 458.92C90.2569 458.56 90.1769 458.213 90.0436 457.88C89.9236 457.547 89.7503 457.26 89.5236 457.02C89.3103 456.767 89.0436 456.567 88.7236 456.42C88.4169 456.26 88.0703 456.18 87.6836 456.18C87.2836 456.18 86.9169 456.253 86.5836 456.4C86.2636 456.533 85.9836 456.727 85.7436 456.98C85.5169 457.22 85.3303 457.507 85.1836 457.84C85.0503 458.173 84.9769 458.533 84.9636 458.92H90.2836ZM84.9636 460.42C84.9636 460.82 85.0169 461.207 85.1236 461.58C85.2436 461.953 85.4169 462.28 85.6436 462.56C85.8703 462.84 86.1569 463.067 86.5036 463.24C86.8503 463.4 87.2636 463.48 87.7436 463.48C88.4103 463.48 88.9436 463.34 89.3436 463.06C89.7569 462.767 90.0636 462.333 90.2636 461.76H92.4236C92.3036 462.32 92.0969 462.82 91.8036 463.26C91.5103 463.7 91.1569 464.073 90.7436 464.38C90.3303 464.673 89.8636 464.893 89.3436 465.04C88.8369 465.2 88.3036 465.28 87.7436 465.28C86.9303 465.28 86.2103 465.147 85.5836 464.88C84.9569 464.613 84.4236 464.24 83.9836 463.76C83.5569 463.28 83.2303 462.707 83.0036 462.04C82.7903 461.373 82.6836 460.64 82.6836 459.84C82.6836 459.107 82.7969 458.413 83.0236 457.76C83.2636 457.093 83.5969 456.513 84.0236 456.02C84.4636 455.513 84.9903 455.113 85.6036 454.82C86.2169 454.527 86.9103 454.38 87.6836 454.38C88.4969 454.38 89.2236 454.553 89.8636 454.9C90.5169 455.233 91.0569 455.68 91.4836 456.24C91.9103 456.8 92.2169 457.447 92.4036 458.18C92.6036 458.9 92.6569 459.647 92.5636 460.42H84.9636ZM94.0969 454.66H96.2569V456.18L96.2969 456.22C96.6435 455.647 97.0969 455.2 97.6569 454.88C98.2169 454.547 98.8369 454.38 99.5169 454.38C100.65 454.38 101.544 454.673 102.197 455.26C102.85 455.847 103.177 456.727 103.177 457.9V465H100.897V458.5C100.87 457.687 100.697 457.1 100.377 456.74C100.057 456.367 99.5569 456.18 98.8769 456.18C98.4902 456.18 98.1435 456.253 97.8369 456.4C97.5302 456.533 97.2702 456.727 97.0569 456.98C96.8435 457.22 96.6769 457.507 96.5569 457.84C96.4369 458.173 96.3769 458.527 96.3769 458.9V465H94.0969V454.66ZM104.341 454.66H106.061V451.56H108.341V454.66H110.401V456.36H108.341V461.88C108.341 462.12 108.348 462.327 108.361 462.5C108.388 462.673 108.435 462.82 108.501 462.94C108.581 463.06 108.695 463.153 108.841 463.22C108.988 463.273 109.188 463.3 109.441 463.3C109.601 463.3 109.761 463.3 109.921 463.3C110.081 463.287 110.241 463.26 110.401 463.22V464.98C110.148 465.007 109.901 465.033 109.661 465.06C109.421 465.087 109.175 465.1 108.921 465.1C108.321 465.1 107.835 465.047 107.461 464.94C107.101 464.82 106.815 464.653 106.601 464.44C106.401 464.213 106.261 463.933 106.181 463.6C106.115 463.267 106.075 462.887 106.061 462.46V456.36H104.341V454.66ZM113.561 461.68C113.628 462.347 113.881 462.813 114.321 463.08C114.761 463.347 115.288 463.48 115.901 463.48C116.115 463.48 116.355 463.467 116.621 463.44C116.901 463.4 117.161 463.333 117.401 463.24C117.641 463.147 117.835 463.013 117.981 462.84C118.141 462.653 118.215 462.413 118.201 462.12C118.188 461.827 118.081 461.587 117.881 461.4C117.681 461.213 117.421 461.067 117.101 460.96C116.795 460.84 116.441 460.74 116.041 460.66C115.641 460.58 115.235 460.493 114.821 460.4C114.395 460.307 113.981 460.193 113.581 460.06C113.195 459.927 112.841 459.747 112.521 459.52C112.215 459.293 111.968 459.007 111.781 458.66C111.595 458.3 111.501 457.86 111.501 457.34C111.501 456.78 111.635 456.313 111.901 455.94C112.181 455.553 112.528 455.247 112.941 455.02C113.368 454.78 113.835 454.613 114.341 454.52C114.861 454.427 115.355 454.38 115.821 454.38C116.355 454.38 116.861 454.44 117.341 454.56C117.835 454.667 118.275 454.847 118.661 455.1C119.061 455.353 119.388 455.687 119.641 456.1C119.908 456.5 120.075 456.987 120.141 457.56H117.761C117.655 457.013 117.401 456.647 117.001 456.46C116.615 456.273 116.168 456.18 115.661 456.18C115.501 456.18 115.308 456.193 115.081 456.22C114.868 456.247 114.661 456.3 114.461 456.38C114.275 456.447 114.115 456.553 113.981 456.7C113.848 456.833 113.781 457.013 113.781 457.24C113.781 457.52 113.875 457.747 114.061 457.92C114.261 458.093 114.515 458.24 114.821 458.36C115.141 458.467 115.501 458.56 115.901 458.64C116.301 458.72 116.715 458.807 117.141 458.9C117.555 458.993 117.961 459.107 118.361 459.24C118.761 459.373 119.115 459.553 119.421 459.78C119.741 460.007 119.995 460.293 120.181 460.64C120.381 460.987 120.481 461.413 120.481 461.92C120.481 462.533 120.341 463.053 120.061 463.48C119.781 463.907 119.415 464.253 118.961 464.52C118.521 464.787 118.028 464.98 117.481 465.1C116.935 465.22 116.395 465.28 115.861 465.28C115.208 465.28 114.601 465.207 114.041 465.06C113.495 464.913 113.015 464.693 112.601 464.4C112.201 464.093 111.881 463.72 111.641 463.28C111.415 462.827 111.295 462.293 111.281 461.68H113.561ZM122.193 462.3H124.973V465H122.193V462.3ZM127.559 462.3H130.339V465H127.559V462.3ZM132.925 462.3H135.705V465H132.925V462.3Z" fill="#242527"/>
<circle cx="52.5" cy="403.5" r="27.5" fill="#DCF3DD"/>
<path d="M42 413C42 410.878 42.8429 408.843 44.3431 407.343C45.8434 405.843 47.8783 405 50 405C52.1217 405 54.1566 405.843 55.6569 407.343C57.1571 408.843 58 410.878 58 413H56C56 411.409 55.3679 409.883 54.2426 408.757C53.1174 407.632 51.5913 407 50 407C48.4087 407 46.8826 407.632 45.7574 408.757C44.6321 409.883 44 411.409 44 413H42ZM50 404C46.685 404 44 401.315 44 398C44 394.685 46.685 392 50 392C53.315 392 56 394.685 56 398C56 401.315 53.315 404 50 404ZM50 402C52.21 402 54 400.21 54 398C54 395.79 52.21 394 50 394C47.79 394 46 395.79 46 398C46 400.21 47.79 402 50 402ZM58.284 405.703C59.6893 406.336 60.882 407.361 61.7186 408.656C62.5552 409.95 63.0002 411.459 63 413H61C61.0002 411.844 60.6666 410.712 60.0391 409.742C59.4116 408.771 58.5171 408.002 57.463 407.527L58.283 405.703H58.284ZM57.596 394.413C58.6035 394.828 59.465 395.534 60.071 396.439C60.6771 397.345 61.0004 398.41 61 399.5C61.0004 400.872 60.4877 402.195 59.5625 403.209C58.6374 404.222 57.3667 404.853 56 404.978V402.965C56.7409 402.859 57.4283 402.518 57.9613 401.992C58.4943 401.467 58.8447 400.784 58.9612 400.045C59.0776 399.306 58.954 398.548 58.6084 397.884C58.2628 397.22 57.7134 396.685 57.041 396.356L57.596 394.413V394.413Z" fill="#7ABE7D"/>
<rect x="104" y="173" width="283" height="153" fill="#F7F7F8"/>
<path d="M130.52 277.72H136.82C137.833 277.72 138.66 277.867 139.3 278.16C139.94 278.453 140.433 278.82 140.78 279.26C141.127 279.7 141.36 280.18 141.48 280.7C141.613 281.22 141.68 281.7 141.68 282.14C141.68 282.58 141.613 283.06 141.48 283.58C141.36 284.087 141.127 284.56 140.78 285C140.433 285.44 139.94 285.807 139.3 286.1C138.66 286.38 137.833 286.52 136.82 286.52H133.02V292H130.52V277.72ZM133.02 284.48H136.68C136.96 284.48 137.247 284.44 137.54 284.36C137.833 284.28 138.1 284.153 138.34 283.98C138.593 283.793 138.793 283.553 138.94 283.26C139.1 282.953 139.18 282.573 139.18 282.12C139.18 281.653 139.113 281.267 138.98 280.96C138.847 280.653 138.667 280.413 138.44 280.24C138.213 280.053 137.953 279.927 137.66 279.86C137.367 279.793 137.053 279.76 136.72 279.76H133.02V284.48ZM143.34 281.66H145.48V283.66H145.52C145.587 283.38 145.713 283.107 145.9 282.84C146.1 282.573 146.333 282.333 146.6 282.12C146.88 281.893 147.187 281.713 147.52 281.58C147.853 281.447 148.193 281.38 148.54 281.38C148.807 281.38 148.987 281.387 149.08 281.4C149.187 281.413 149.293 281.427 149.4 281.44V283.64C149.24 283.613 149.073 283.593 148.9 283.58C148.74 283.553 148.58 283.54 148.42 283.54C148.033 283.54 147.667 283.62 147.32 283.78C146.987 283.927 146.693 284.153 146.44 284.46C146.187 284.753 145.987 285.12 145.84 285.56C145.693 286 145.62 286.507 145.62 287.08V292H143.34V281.66ZM154.56 292.28C153.733 292.28 152.993 292.147 152.34 291.88C151.7 291.6 151.153 291.22 150.7 290.74C150.26 290.26 149.92 289.687 149.68 289.02C149.453 288.353 149.34 287.62 149.34 286.82C149.34 286.033 149.453 285.307 149.68 284.64C149.92 283.973 150.26 283.4 150.7 282.92C151.153 282.44 151.7 282.067 152.34 281.8C152.993 281.52 153.733 281.38 154.56 281.38C155.386 281.38 156.12 281.52 156.76 281.8C157.413 282.067 157.96 282.44 158.4 282.92C158.853 283.4 159.193 283.973 159.42 284.64C159.66 285.307 159.78 286.033 159.78 286.82C159.78 287.62 159.66 288.353 159.42 289.02C159.193 289.687 158.853 290.26 158.4 290.74C157.96 291.22 157.413 291.6 156.76 291.88C156.12 292.147 155.386 292.28 154.56 292.28ZM154.56 290.48C155.066 290.48 155.506 290.373 155.88 290.16C156.253 289.947 156.56 289.667 156.8 289.32C157.04 288.973 157.213 288.587 157.32 288.16C157.44 287.72 157.5 287.273 157.5 286.82C157.5 286.38 157.44 285.94 157.32 285.5C157.213 285.06 157.04 284.673 156.8 284.34C156.56 283.993 156.253 283.713 155.88 283.5C155.506 283.287 155.066 283.18 154.56 283.18C154.053 283.18 153.613 283.287 153.24 283.5C152.866 283.713 152.56 283.993 152.32 284.34C152.08 284.673 151.9 285.06 151.78 285.5C151.673 285.94 151.62 286.38 151.62 286.82C151.62 287.273 151.673 287.72 151.78 288.16C151.9 288.587 152.08 288.973 152.32 289.32C152.56 289.667 152.866 289.947 153.24 290.16C153.613 290.373 154.053 290.48 154.56 290.48ZM164.255 286.56L160.675 281.66H163.435L165.595 284.84L167.855 281.66H170.495L166.975 286.44L170.935 292H168.195L165.575 288.18L163.035 292H160.355L164.255 286.56ZM172.077 277.72H174.357V279.88H172.077V277.72ZM172.077 281.66H174.357V292H172.077V281.66ZM183.741 285.92C183.715 285.56 183.635 285.213 183.501 284.88C183.381 284.547 183.208 284.26 182.981 284.02C182.768 283.767 182.501 283.567 182.181 283.42C181.875 283.26 181.528 283.18 181.141 283.18C180.741 283.18 180.375 283.253 180.041 283.4C179.721 283.533 179.441 283.727 179.201 283.98C178.975 284.22 178.788 284.507 178.641 284.84C178.508 285.173 178.435 285.533 178.421 285.92H183.741ZM178.421 287.42C178.421 287.82 178.475 288.207 178.581 288.58C178.701 288.953 178.875 289.28 179.101 289.56C179.328 289.84 179.615 290.067 179.961 290.24C180.308 290.4 180.721 290.48 181.201 290.48C181.868 290.48 182.401 290.34 182.801 290.06C183.215 289.767 183.521 289.333 183.721 288.76H185.881C185.761 289.32 185.555 289.82 185.261 290.26C184.968 290.7 184.615 291.073 184.201 291.38C183.788 291.673 183.321 291.893 182.801 292.04C182.295 292.2 181.761 292.28 181.201 292.28C180.388 292.28 179.668 292.147 179.041 291.88C178.415 291.613 177.881 291.24 177.441 290.76C177.015 290.28 176.688 289.707 176.461 289.04C176.248 288.373 176.141 287.64 176.141 286.84C176.141 286.107 176.255 285.413 176.481 284.76C176.721 284.093 177.055 283.513 177.481 283.02C177.921 282.513 178.448 282.113 179.061 281.82C179.675 281.527 180.368 281.38 181.141 281.38C181.955 281.38 182.681 281.553 183.321 281.9C183.975 282.233 184.515 282.68 184.941 283.24C185.368 283.8 185.675 284.447 185.861 285.18C186.061 285.9 186.115 286.647 186.021 287.42H178.421ZM197.295 292H195.135V290.6H195.095C194.788 291.2 194.341 291.633 193.755 291.9C193.168 292.153 192.548 292.28 191.895 292.28C191.081 292.28 190.368 292.14 189.755 291.86C189.155 291.567 188.655 291.173 188.255 290.68C187.855 290.187 187.555 289.607 187.355 288.94C187.155 288.26 187.055 287.533 187.055 286.76C187.055 285.827 187.181 285.02 187.435 284.34C187.688 283.66 188.021 283.1 188.435 282.66C188.861 282.22 189.341 281.9 189.875 281.7C190.421 281.487 190.975 281.38 191.535 281.38C191.855 281.38 192.181 281.413 192.515 281.48C192.848 281.533 193.168 281.627 193.475 281.76C193.781 281.893 194.061 282.067 194.315 282.28C194.581 282.48 194.801 282.72 194.975 283H195.015V277.72H197.295V292ZM189.335 286.94C189.335 287.38 189.388 287.813 189.495 288.24C189.615 288.667 189.788 289.047 190.015 289.38C190.255 289.713 190.555 289.98 190.915 290.18C191.275 290.38 191.701 290.48 192.195 290.48C192.701 290.48 193.135 290.373 193.495 290.16C193.868 289.947 194.168 289.667 194.395 289.32C194.635 288.973 194.808 288.587 194.915 288.16C195.035 287.72 195.095 287.273 195.095 286.82C195.095 285.673 194.835 284.78 194.315 284.14C193.808 283.5 193.115 283.18 192.235 283.18C191.701 283.18 191.248 283.293 190.875 283.52C190.515 283.733 190.215 284.02 189.975 284.38C189.748 284.727 189.581 285.127 189.475 285.58C189.381 286.02 189.335 286.473 189.335 286.94ZM199.861 277.72H203.381L207.321 288.9H207.361L211.201 277.72H214.681V292H212.301V280.98H212.261L208.301 292H206.241L202.281 280.98H202.241V292H199.861V277.72ZM225.815 289.7C225.815 289.98 225.848 290.18 225.915 290.3C225.995 290.42 226.141 290.48 226.355 290.48C226.421 290.48 226.501 290.48 226.595 290.48C226.688 290.48 226.795 290.467 226.915 290.44V292.02C226.835 292.047 226.728 292.073 226.595 292.1C226.475 292.14 226.348 292.173 226.215 292.2C226.081 292.227 225.948 292.247 225.815 292.26C225.681 292.273 225.568 292.28 225.475 292.28C225.008 292.28 224.621 292.187 224.315 292C224.008 291.813 223.808 291.487 223.715 291.02C223.261 291.46 222.701 291.78 222.035 291.98C221.381 292.18 220.748 292.28 220.135 292.28C219.668 292.28 219.221 292.213 218.795 292.08C218.368 291.96 217.988 291.78 217.655 291.54C217.335 291.287 217.075 290.973 216.875 290.6C216.688 290.213 216.595 289.767 216.595 289.26C216.595 288.62 216.708 288.1 216.935 287.7C217.175 287.3 217.481 286.987 217.855 286.76C218.241 286.533 218.668 286.373 219.135 286.28C219.615 286.173 220.095 286.093 220.575 286.04C220.988 285.96 221.381 285.907 221.755 285.88C222.128 285.84 222.455 285.78 222.735 285.7C223.028 285.62 223.255 285.5 223.415 285.34C223.588 285.167 223.675 284.913 223.675 284.58C223.675 284.287 223.601 284.047 223.455 283.86C223.321 283.673 223.148 283.533 222.935 283.44C222.735 283.333 222.508 283.267 222.255 283.24C222.001 283.2 221.761 283.18 221.535 283.18C220.895 283.18 220.368 283.313 219.955 283.58C219.541 283.847 219.308 284.26 219.255 284.82H216.975C217.015 284.153 217.175 283.6 217.455 283.16C217.735 282.72 218.088 282.367 218.515 282.1C218.955 281.833 219.448 281.647 219.995 281.54C220.541 281.433 221.101 281.38 221.675 281.38C222.181 281.38 222.681 281.433 223.175 281.54C223.668 281.647 224.108 281.82 224.495 282.06C224.895 282.3 225.215 282.613 225.455 283C225.695 283.373 225.815 283.833 225.815 284.38V289.7ZM223.535 286.82C223.188 287.047 222.761 287.187 222.255 287.24C221.748 287.28 221.241 287.347 220.735 287.44C220.495 287.48 220.261 287.54 220.035 287.62C219.808 287.687 219.608 287.787 219.435 287.92C219.261 288.04 219.121 288.207 219.015 288.42C218.921 288.62 218.875 288.867 218.875 289.16C218.875 289.413 218.948 289.627 219.095 289.8C219.241 289.973 219.415 290.113 219.615 290.22C219.828 290.313 220.055 290.38 220.295 290.42C220.548 290.46 220.775 290.48 220.975 290.48C221.228 290.48 221.501 290.447 221.795 290.38C222.088 290.313 222.361 290.2 222.615 290.04C222.881 289.88 223.101 289.68 223.275 289.44C223.448 289.187 223.535 288.88 223.535 288.52V286.82ZM228.128 277.72H230.408V279.88H228.128V277.72ZM228.128 281.66H230.408V292H228.128V281.66ZM232.752 277.72H235.032V292H232.752V277.72ZM249.783 285.92C249.756 285.56 249.676 285.213 249.543 284.88C249.423 284.547 249.249 284.26 249.023 284.02C248.809 283.767 248.543 283.567 248.223 283.42C247.916 283.26 247.569 283.18 247.183 283.18C246.783 283.18 246.416 283.253 246.083 283.4C245.763 283.533 245.483 283.727 245.243 283.98C245.016 284.22 244.829 284.507 244.683 284.84C244.549 285.173 244.476 285.533 244.463 285.92H249.783ZM244.463 287.42C244.463 287.82 244.516 288.207 244.623 288.58C244.743 288.953 244.916 289.28 245.143 289.56C245.369 289.84 245.656 290.067 246.003 290.24C246.349 290.4 246.763 290.48 247.243 290.48C247.909 290.48 248.443 290.34 248.843 290.06C249.256 289.767 249.563 289.333 249.763 288.76H251.923C251.803 289.32 251.596 289.82 251.303 290.26C251.009 290.7 250.656 291.073 250.243 291.38C249.829 291.673 249.363 291.893 248.843 292.04C248.336 292.2 247.803 292.28 247.243 292.28C246.429 292.28 245.709 292.147 245.083 291.88C244.456 291.613 243.923 291.24 243.483 290.76C243.056 290.28 242.729 289.707 242.503 289.04C242.289 288.373 242.183 287.64 242.183 286.84C242.183 286.107 242.296 285.413 242.523 284.76C242.763 284.093 243.096 283.513 243.523 283.02C243.963 282.513 244.489 282.113 245.103 281.82C245.716 281.527 246.409 281.38 247.183 281.38C247.996 281.38 248.723 281.553 249.363 281.9C250.016 282.233 250.556 282.68 250.983 283.24C251.409 283.8 251.716 284.447 251.903 285.18C252.103 285.9 252.156 286.647 252.063 287.42H244.463ZM253.596 281.66H255.756V283.18L255.796 283.22C256.143 282.647 256.596 282.2 257.156 281.88C257.716 281.547 258.336 281.38 259.016 281.38C260.149 281.38 261.043 281.673 261.696 282.26C262.349 282.847 262.676 283.727 262.676 284.9V292H260.396V285.5C260.369 284.687 260.196 284.1 259.876 283.74C259.556 283.367 259.056 283.18 258.376 283.18C257.989 283.18 257.643 283.253 257.336 283.4C257.029 283.533 256.769 283.727 256.556 283.98C256.343 284.22 256.176 284.507 256.056 284.84C255.936 285.173 255.876 285.527 255.876 285.9V292H253.596V281.66ZM271.86 285.12C271.767 284.48 271.507 284 271.08 283.68C270.667 283.347 270.14 283.18 269.5 283.18C269.207 283.18 268.894 283.233 268.56 283.34C268.227 283.433 267.92 283.62 267.64 283.9C267.36 284.167 267.127 284.547 266.94 285.04C266.754 285.52 266.66 286.153 266.66 286.94C266.66 287.367 266.707 287.793 266.8 288.22C266.907 288.647 267.067 289.027 267.28 289.36C267.507 289.693 267.794 289.967 268.14 290.18C268.487 290.38 268.907 290.48 269.4 290.48C270.067 290.48 270.614 290.273 271.04 289.86C271.48 289.447 271.754 288.867 271.86 288.12H274.14C273.927 289.467 273.414 290.5 272.6 291.22C271.8 291.927 270.734 292.28 269.4 292.28C268.587 292.28 267.867 292.147 267.24 291.88C266.627 291.6 266.107 291.227 265.68 290.76C265.254 290.28 264.927 289.713 264.7 289.06C264.487 288.407 264.38 287.7 264.38 286.94C264.38 286.167 264.487 285.44 264.7 284.76C264.914 284.08 265.234 283.493 265.66 283C266.087 282.493 266.614 282.1 267.24 281.82C267.88 281.527 268.627 281.38 269.48 281.38C270.08 281.38 270.647 281.46 271.18 281.62C271.727 281.767 272.207 281.993 272.62 282.3C273.047 282.607 273.394 282.993 273.66 283.46C273.927 283.927 274.087 284.48 274.14 285.12H271.86ZM275.794 281.66H277.934V283.66H277.974C278.04 283.38 278.167 283.107 278.354 282.84C278.554 282.573 278.787 282.333 279.054 282.12C279.334 281.893 279.64 281.713 279.974 281.58C280.307 281.447 280.647 281.38 280.994 281.38C281.26 281.38 281.44 281.387 281.534 281.4C281.64 281.413 281.747 281.427 281.854 281.44V283.64C281.694 283.613 281.527 283.593 281.354 283.58C281.194 283.553 281.034 283.54 280.874 283.54C280.487 283.54 280.12 283.62 279.774 283.78C279.44 283.927 279.147 284.153 278.894 284.46C278.64 284.753 278.44 285.12 278.294 285.56C278.147 286 278.074 286.507 278.074 287.08V292H275.794V281.66ZM281.485 281.66H283.985L286.685 289.38H286.725L289.345 281.66H291.725L287.705 292.56C287.518 293.027 287.332 293.473 287.145 293.9C286.972 294.327 286.752 294.7 286.485 295.02C286.232 295.353 285.912 295.613 285.525 295.8C285.138 296 284.645 296.1 284.045 296.1C283.512 296.1 282.985 296.06 282.465 295.98V294.06C282.652 294.087 282.832 294.113 283.005 294.14C283.178 294.18 283.358 294.2 283.545 294.2C283.812 294.2 284.032 294.167 284.205 294.1C284.378 294.033 284.518 293.933 284.625 293.8C284.745 293.68 284.845 293.533 284.925 293.36C285.005 293.187 285.078 292.987 285.145 292.76L285.405 291.96L281.485 281.66ZM292.856 281.66H295.016V283.06H295.056C295.376 282.46 295.823 282.033 296.396 281.78C296.969 281.513 297.589 281.38 298.256 281.38C299.069 281.38 299.776 281.527 300.376 281.82C300.989 282.1 301.496 282.493 301.896 283C302.296 283.493 302.596 284.073 302.796 284.74C302.996 285.407 303.096 286.12 303.096 286.88C303.096 287.573 303.003 288.247 302.816 288.9C302.643 289.553 302.369 290.133 301.996 290.64C301.636 291.133 301.176 291.533 300.616 291.84C300.056 292.133 299.396 292.28 298.636 292.28C298.303 292.28 297.969 292.247 297.636 292.18C297.303 292.127 296.983 292.033 296.676 291.9C296.369 291.767 296.083 291.6 295.816 291.4C295.563 291.187 295.349 290.94 295.176 290.66H295.136V295.82H292.856V281.66ZM300.816 286.84C300.816 286.373 300.756 285.92 300.636 285.48C300.516 285.04 300.336 284.653 300.096 284.32C299.856 283.973 299.556 283.7 299.196 283.5C298.836 283.287 298.423 283.18 297.956 283.18C296.996 283.18 296.269 283.513 295.776 284.18C295.296 284.847 295.056 285.733 295.056 286.84C295.056 287.36 295.116 287.847 295.236 288.3C295.369 288.74 295.563 289.12 295.816 289.44C296.069 289.76 296.369 290.013 296.716 290.2C297.076 290.387 297.489 290.48 297.956 290.48C298.476 290.48 298.916 290.373 299.276 290.16C299.636 289.947 299.929 289.673 300.156 289.34C300.396 288.993 300.563 288.607 300.656 288.18C300.763 287.74 300.816 287.293 300.816 286.84ZM303.783 281.66H305.503V278.56H307.783V281.66H309.843V283.36H307.783V288.88C307.783 289.12 307.789 289.327 307.803 289.5C307.829 289.673 307.876 289.82 307.943 289.94C308.023 290.06 308.136 290.153 308.283 290.22C308.429 290.273 308.629 290.3 308.883 290.3C309.043 290.3 309.203 290.3 309.363 290.3C309.523 290.287 309.683 290.26 309.843 290.22V291.98C309.589 292.007 309.343 292.033 309.103 292.06C308.863 292.087 308.616 292.1 308.363 292.1C307.763 292.1 307.276 292.047 306.903 291.94C306.543 291.82 306.256 291.653 306.043 291.44C305.843 291.213 305.703 290.933 305.623 290.6C305.556 290.267 305.516 289.887 305.503 289.46V283.36H303.783V281.66ZM318.383 285.92C318.356 285.56 318.276 285.213 318.143 284.88C318.023 284.547 317.849 284.26 317.623 284.02C317.409 283.767 317.143 283.567 316.823 283.42C316.516 283.26 316.169 283.18 315.783 283.18C315.383 283.18 315.016 283.253 314.683 283.4C314.363 283.533 314.083 283.727 313.843 283.98C313.616 284.22 313.429 284.507 313.283 284.84C313.149 285.173 313.076 285.533 313.063 285.92H318.383ZM313.063 287.42C313.063 287.82 313.116 288.207 313.223 288.58C313.343 288.953 313.516 289.28 313.743 289.56C313.969 289.84 314.256 290.067 314.603 290.24C314.949 290.4 315.363 290.48 315.843 290.48C316.509 290.48 317.043 290.34 317.443 290.06C317.856 289.767 318.163 289.333 318.363 288.76H320.523C320.403 289.32 320.196 289.82 319.903 290.26C319.609 290.7 319.256 291.073 318.843 291.38C318.429 291.673 317.963 291.893 317.443 292.04C316.936 292.2 316.403 292.28 315.843 292.28C315.029 292.28 314.309 292.147 313.683 291.88C313.056 291.613 312.523 291.24 312.083 290.76C311.656 290.28 311.329 289.707 311.103 289.04C310.889 288.373 310.783 287.64 310.783 286.84C310.783 286.107 310.896 285.413 311.123 284.76C311.363 284.093 311.696 283.513 312.123 283.02C312.563 282.513 313.089 282.113 313.703 281.82C314.316 281.527 315.009 281.38 315.783 281.38C316.596 281.38 317.323 281.553 317.963 281.9C318.616 282.233 319.156 282.68 319.583 283.24C320.009 283.8 320.316 284.447 320.503 285.18C320.703 285.9 320.756 286.647 320.663 287.42H313.063ZM331.936 292H329.776V290.6H329.736C329.429 291.2 328.983 291.633 328.396 291.9C327.809 292.153 327.189 292.28 326.536 292.28C325.723 292.28 325.009 292.14 324.396 291.86C323.796 291.567 323.296 291.173 322.896 290.68C322.496 290.187 322.196 289.607 321.996 288.94C321.796 288.26 321.696 287.533 321.696 286.76C321.696 285.827 321.823 285.02 322.076 284.34C322.329 283.66 322.663 283.1 323.076 282.66C323.503 282.22 323.983 281.9 324.516 281.7C325.063 281.487 325.616 281.38 326.176 281.38C326.496 281.38 326.823 281.413 327.156 281.48C327.489 281.533 327.809 281.627 328.116 281.76C328.423 281.893 328.703 282.067 328.956 282.28C329.223 282.48 329.443 282.72 329.616 283H329.656V277.72H331.936V292ZM323.976 286.94C323.976 287.38 324.029 287.813 324.136 288.24C324.256 288.667 324.429 289.047 324.656 289.38C324.896 289.713 325.196 289.98 325.556 290.18C325.916 290.38 326.343 290.48 326.836 290.48C327.343 290.48 327.776 290.373 328.136 290.16C328.509 289.947 328.809 289.667 329.036 289.32C329.276 288.973 329.449 288.587 329.556 288.16C329.676 287.72 329.736 287.273 329.736 286.82C329.736 285.673 329.476 284.78 328.956 284.14C328.449 283.5 327.756 283.18 326.876 283.18C326.343 283.18 325.889 283.293 325.516 283.52C325.156 283.733 324.856 284.02 324.616 284.38C324.389 284.727 324.223 285.127 324.116 285.58C324.023 286.02 323.976 286.473 323.976 286.94Z" fill="#242527"/>
<circle cx="156.5" cy="230.5" r="27.5" fill="#DCF3DD"/>
<path d="M156 220L164.217 221.826C164.674 221.928 165 222.333 165 222.802V232.789C165 234.795 163.997 236.669 162.328 237.781L156 242L149.672 237.781C148.002 236.668 147 234.795 147 232.79V222.802C147 222.333 147.326 221.928 147.783 221.826L156 220ZM156 222.049L149 223.604V232.789C149 234.126 149.668 235.375 150.781 236.117L156 239.597L161.219 236.117C162.332 235.375 163 234.127 163 232.79V223.604L156 222.05V222.049ZM160.452 227.222L161.867 228.636L155.503 235L151.26 230.757L152.674 229.343L155.502 232.171L160.452 227.221V227.222Z" fill="#7ABE7D"/>
<rect width="283" height="153" fill="#F7F7F8"/>
<path d="M26.52 104.72H36.8V106.88H29.02V110.62H36.22V112.66H29.02V116.84H36.94V119H26.52V104.72ZM38.5977 108.66H40.7577V110.1H40.8177C40.991 109.847 41.1777 109.613 41.3777 109.4C41.5777 109.187 41.7977 109.007 42.0377 108.86C42.291 108.713 42.5777 108.6 42.8977 108.52C43.2177 108.427 43.5843 108.38 43.9977 108.38C44.6243 108.38 45.2043 108.52 45.7377 108.8C46.2843 109.08 46.671 109.513 46.8977 110.1C47.2843 109.567 47.731 109.147 48.2377 108.84C48.7443 108.533 49.3777 108.38 50.1377 108.38C51.231 108.38 52.0777 108.647 52.6777 109.18C53.291 109.713 53.5977 110.607 53.5977 111.86V119H51.3177V112.96C51.3177 112.547 51.3043 112.173 51.2777 111.84C51.251 111.493 51.171 111.2 51.0377 110.96C50.9177 110.707 50.731 110.513 50.4777 110.38C50.2243 110.247 49.8777 110.18 49.4377 110.18C48.6643 110.18 48.1043 110.42 47.7577 110.9C47.411 111.38 47.2377 112.06 47.2377 112.94V119H44.9577V112.36C44.9577 111.64 44.8243 111.1 44.5577 110.74C44.3043 110.367 43.831 110.18 43.1377 110.18C42.8443 110.18 42.5577 110.24 42.2777 110.36C42.011 110.48 41.771 110.653 41.5577 110.88C41.3577 111.107 41.191 111.387 41.0577 111.72C40.9377 112.053 40.8777 112.433 40.8777 112.86V119H38.5977V108.66ZM64.46 116.7C64.46 116.98 64.4933 117.18 64.56 117.3C64.64 117.42 64.7867 117.48 65 117.48C65.0667 117.48 65.1467 117.48 65.24 117.48C65.3333 117.48 65.44 117.467 65.56 117.44V119.02C65.48 119.047 65.3733 119.073 65.24 119.1C65.12 119.14 64.9933 119.173 64.86 119.2C64.7267 119.227 64.5933 119.247 64.46 119.26C64.3267 119.273 64.2133 119.28 64.12 119.28C63.6533 119.28 63.2667 119.187 62.96 119C62.6533 118.813 62.4533 118.487 62.36 118.02C61.9067 118.46 61.3467 118.78 60.68 118.98C60.0267 119.18 59.3933 119.28 58.78 119.28C58.3133 119.28 57.8667 119.213 57.44 119.08C57.0133 118.96 56.6333 118.78 56.3 118.54C55.98 118.287 55.72 117.973 55.52 117.6C55.3333 117.213 55.24 116.767 55.24 116.26C55.24 115.62 55.3533 115.1 55.58 114.7C55.82 114.3 56.1267 113.987 56.5 113.76C56.8867 113.533 57.3133 113.373 57.78 113.28C58.26 113.173 58.74 113.093 59.22 113.04C59.6333 112.96 60.0267 112.907 60.4 112.88C60.7733 112.84 61.1 112.78 61.38 112.7C61.6733 112.62 61.9 112.5 62.06 112.34C62.2333 112.167 62.32 111.913 62.32 111.58C62.32 111.287 62.2467 111.047 62.1 110.86C61.9667 110.673 61.7933 110.533 61.58 110.44C61.38 110.333 61.1533 110.267 60.9 110.24C60.6467 110.2 60.4067 110.18 60.18 110.18C59.54 110.18 59.0133 110.313 58.6 110.58C58.1867 110.847 57.9533 111.26 57.9 111.82H55.62C55.66 111.153 55.82 110.6 56.1 110.16C56.38 109.72 56.7333 109.367 57.16 109.1C57.6 108.833 58.0933 108.647 58.64 108.54C59.1867 108.433 59.7467 108.38 60.32 108.38C60.8267 108.38 61.3267 108.433 61.82 108.54C62.3133 108.647 62.7533 108.82 63.14 109.06C63.54 109.3 63.86 109.613 64.1 110C64.34 110.373 64.46 110.833 64.46 111.38V116.7ZM62.18 113.82C61.8333 114.047 61.4067 114.187 60.9 114.24C60.3933 114.28 59.8867 114.347 59.38 114.44C59.14 114.48 58.9067 114.54 58.68 114.62C58.4533 114.687 58.2533 114.787 58.08 114.92C57.9067 115.04 57.7667 115.207 57.66 115.42C57.5667 115.62 57.52 115.867 57.52 116.16C57.52 116.413 57.5933 116.627 57.74 116.8C57.8867 116.973 58.06 117.113 58.26 117.22C58.4733 117.313 58.7 117.38 58.94 117.42C59.1933 117.46 59.42 117.48 59.62 117.48C59.8733 117.48 60.1467 117.447 60.44 117.38C60.7333 117.313 61.0067 117.2 61.26 117.04C61.5267 116.88 61.7467 116.68 61.92 116.44C62.0933 116.187 62.18 115.88 62.18 115.52V113.82ZM66.7733 104.72H69.0533V106.88H66.7733V104.72ZM66.7733 108.66H69.0533V119H66.7733V108.66ZM71.3975 104.72H73.6775V119H71.3975V104.72ZM81.3281 108.66H83.4881V110.1H83.5481C83.7215 109.847 83.9081 109.613 84.1081 109.4C84.3081 109.187 84.5281 109.007 84.7681 108.86C85.0215 108.713 85.3081 108.6 85.6281 108.52C85.9481 108.427 86.3148 108.38 86.7281 108.38C87.3548 108.38 87.9348 108.52 88.4681 108.8C89.0148 109.08 89.4015 109.513 89.6281 110.1C90.0148 109.567 90.4615 109.147 90.9681 108.84C91.4748 108.533 92.1081 108.38 92.8681 108.38C93.9615 108.38 94.8081 108.647 95.4081 109.18C96.0215 109.713 96.3281 110.607 96.3281 111.86V119H94.0481V112.96C94.0481 112.547 94.0348 112.173 94.0081 111.84C93.9815 111.493 93.9015 111.2 93.7681 110.96C93.6481 110.707 93.4615 110.513 93.2081 110.38C92.9548 110.247 92.6081 110.18 92.1681 110.18C91.3948 110.18 90.8348 110.42 90.4881 110.9C90.1415 111.38 89.9681 112.06 89.9681 112.94V119H87.6881V112.36C87.6881 111.64 87.5548 111.1 87.2881 110.74C87.0348 110.367 86.5615 110.18 85.8681 110.18C85.5748 110.18 85.2881 110.24 85.0081 110.36C84.7415 110.48 84.5015 110.653 84.2881 110.88C84.0881 111.107 83.9215 111.387 83.7881 111.72C83.6681 112.053 83.6081 112.433 83.6081 112.86V119H81.3281V108.66ZM105.63 112.92C105.604 112.56 105.524 112.213 105.39 111.88C105.27 111.547 105.097 111.26 104.87 111.02C104.657 110.767 104.39 110.567 104.07 110.42C103.764 110.26 103.417 110.18 103.03 110.18C102.63 110.18 102.264 110.253 101.93 110.4C101.61 110.533 101.33 110.727 101.09 110.98C100.864 111.22 100.677 111.507 100.53 111.84C100.397 112.173 100.324 112.533 100.31 112.92H105.63ZM100.31 114.42C100.31 114.82 100.364 115.207 100.47 115.58C100.59 115.953 100.764 116.28 100.99 116.56C101.217 116.84 101.504 117.067 101.85 117.24C102.197 117.4 102.61 117.48 103.09 117.48C103.757 117.48 104.29 117.34 104.69 117.06C105.104 116.767 105.41 116.333 105.61 115.76H107.77C107.65 116.32 107.444 116.82 107.15 117.26C106.857 117.7 106.504 118.073 106.09 118.38C105.677 118.673 105.21 118.893 104.69 119.04C104.184 119.2 103.65 119.28 103.09 119.28C102.277 119.28 101.557 119.147 100.93 118.88C100.304 118.613 99.7705 118.24 99.3305 117.76C98.9038 117.28 98.5771 116.707 98.3505 116.04C98.1371 115.373 98.0305 114.64 98.0305 113.84C98.0305 113.107 98.1438 112.413 98.3705 111.76C98.6105 111.093 98.9438 110.513 99.3705 110.02C99.8105 109.513 100.337 109.113 100.95 108.82C101.564 108.527 102.257 108.38 103.03 108.38C103.844 108.38 104.57 108.553 105.21 108.9C105.864 109.233 106.404 109.68 106.83 110.24C107.257 110.8 107.564 111.447 107.75 112.18C107.95 112.9 108.004 113.647 107.91 114.42H100.31ZM111.164 115.68C111.23 116.347 111.484 116.813 111.924 117.08C112.364 117.347 112.89 117.48 113.504 117.48C113.717 117.48 113.957 117.467 114.224 117.44C114.504 117.4 114.764 117.333 115.004 117.24C115.244 117.147 115.437 117.013 115.584 116.84C115.744 116.653 115.817 116.413 115.804 116.12C115.79 115.827 115.684 115.587 115.484 115.4C115.284 115.213 115.024 115.067 114.704 114.96C114.397 114.84 114.044 114.74 113.644 114.66C113.244 114.58 112.837 114.493 112.424 114.4C111.997 114.307 111.584 114.193 111.184 114.06C110.797 113.927 110.444 113.747 110.124 113.52C109.817 113.293 109.57 113.007 109.384 112.66C109.197 112.3 109.104 111.86 109.104 111.34C109.104 110.78 109.237 110.313 109.504 109.94C109.784 109.553 110.13 109.247 110.544 109.02C110.97 108.78 111.437 108.613 111.944 108.52C112.464 108.427 112.957 108.38 113.424 108.38C113.957 108.38 114.464 108.44 114.944 108.56C115.437 108.667 115.877 108.847 116.264 109.1C116.664 109.353 116.99 109.687 117.244 110.1C117.51 110.5 117.677 110.987 117.744 111.56H115.364C115.257 111.013 115.004 110.647 114.604 110.46C114.217 110.273 113.77 110.18 113.264 110.18C113.104 110.18 112.91 110.193 112.684 110.22C112.47 110.247 112.264 110.3 112.064 110.38C111.877 110.447 111.717 110.553 111.584 110.7C111.45 110.833 111.384 111.013 111.384 111.24C111.384 111.52 111.477 111.747 111.664 111.92C111.864 112.093 112.117 112.24 112.424 112.36C112.744 112.467 113.104 112.56 113.504 112.64C113.904 112.72 114.317 112.807 114.744 112.9C115.157 112.993 115.564 113.107 115.964 113.24C116.364 113.373 116.717 113.553 117.024 113.78C117.344 114.007 117.597 114.293 117.784 114.64C117.984 114.987 118.084 115.413 118.084 115.92C118.084 116.533 117.944 117.053 117.664 117.48C117.384 117.907 117.017 118.253 116.564 118.52C116.124 118.787 115.63 118.98 115.084 119.1C114.537 119.22 113.997 119.28 113.464 119.28C112.81 119.28 112.204 119.207 111.644 119.06C111.097 118.913 110.617 118.693 110.204 118.4C109.804 118.093 109.484 117.72 109.244 117.28C109.017 116.827 108.897 116.293 108.884 115.68H111.164ZM121.335 115.68C121.402 116.347 121.655 116.813 122.095 117.08C122.535 117.347 123.062 117.48 123.675 117.48C123.888 117.48 124.128 117.467 124.395 117.44C124.675 117.4 124.935 117.333 125.175 117.24C125.415 117.147 125.608 117.013 125.755 116.84C125.915 116.653 125.988 116.413 125.975 116.12C125.962 115.827 125.855 115.587 125.655 115.4C125.455 115.213 125.195 115.067 124.875 114.96C124.568 114.84 124.215 114.74 123.815 114.66C123.415 114.58 123.008 114.493 122.595 114.4C122.168 114.307 121.755 114.193 121.355 114.06C120.968 113.927 120.615 113.747 120.295 113.52C119.988 113.293 119.742 113.007 119.555 112.66C119.368 112.3 119.275 111.86 119.275 111.34C119.275 110.78 119.408 110.313 119.675 109.94C119.955 109.553 120.302 109.247 120.715 109.02C121.142 108.78 121.608 108.613 122.115 108.52C122.635 108.427 123.128 108.38 123.595 108.38C124.128 108.38 124.635 108.44 125.115 108.56C125.608 108.667 126.048 108.847 126.435 109.1C126.835 109.353 127.162 109.687 127.415 110.1C127.682 110.5 127.848 110.987 127.915 111.56H125.535C125.428 111.013 125.175 110.647 124.775 110.46C124.388 110.273 123.942 110.18 123.435 110.18C123.275 110.18 123.082 110.193 122.855 110.22C122.642 110.247 122.435 110.3 122.235 110.38C122.048 110.447 121.888 110.553 121.755 110.7C121.622 110.833 121.555 111.013 121.555 111.24C121.555 111.52 121.648 111.747 121.835 111.92C122.035 112.093 122.288 112.24 122.595 112.36C122.915 112.467 123.275 112.56 123.675 112.64C124.075 112.72 124.488 112.807 124.915 112.9C125.328 112.993 125.735 113.107 126.135 113.24C126.535 113.373 126.888 113.553 127.195 113.78C127.515 114.007 127.768 114.293 127.955 114.64C128.155 114.987 128.255 115.413 128.255 115.92C128.255 116.533 128.115 117.053 127.835 117.48C127.555 117.907 127.188 118.253 126.735 118.52C126.295 118.787 125.802 118.98 125.255 119.1C124.708 119.22 124.168 119.28 123.635 119.28C122.982 119.28 122.375 119.207 121.815 119.06C121.268 118.913 120.788 118.693 120.375 118.4C119.975 118.093 119.655 117.72 119.415 117.28C119.188 116.827 119.068 116.293 119.055 115.68H121.335ZM138.446 116.7C138.446 116.98 138.479 117.18 138.546 117.3C138.626 117.42 138.773 117.48 138.986 117.48C139.053 117.48 139.133 117.48 139.226 117.48C139.319 117.48 139.426 117.467 139.546 117.44V119.02C139.466 119.047 139.359 119.073 139.226 119.1C139.106 119.14 138.979 119.173 138.846 119.2C138.713 119.227 138.579 119.247 138.446 119.26C138.313 119.273 138.199 119.28 138.106 119.28C137.639 119.28 137.253 119.187 136.946 119C136.639 118.813 136.439 118.487 136.346 118.02C135.893 118.46 135.333 118.78 134.666 118.98C134.013 119.18 133.379 119.28 132.766 119.28C132.299 119.28 131.853 119.213 131.426 119.08C130.999 118.96 130.619 118.78 130.286 118.54C129.966 118.287 129.706 117.973 129.506 117.6C129.319 117.213 129.226 116.767 129.226 116.26C129.226 115.62 129.339 115.1 129.566 114.7C129.806 114.3 130.113 113.987 130.486 113.76C130.873 113.533 131.299 113.373 131.766 113.28C132.246 113.173 132.726 113.093 133.206 113.04C133.619 112.96 134.013 112.907 134.386 112.88C134.759 112.84 135.086 112.78 135.366 112.7C135.659 112.62 135.886 112.5 136.046 112.34C136.219 112.167 136.306 111.913 136.306 111.58C136.306 111.287 136.233 111.047 136.086 110.86C135.953 110.673 135.779 110.533 135.566 110.44C135.366 110.333 135.139 110.267 134.886 110.24C134.633 110.2 134.393 110.18 134.166 110.18C133.526 110.18 132.999 110.313 132.586 110.58C132.173 110.847 131.939 111.26 131.886 111.82H129.606C129.646 111.153 129.806 110.6 130.086 110.16C130.366 109.72 130.719 109.367 131.146 109.1C131.586 108.833 132.079 108.647 132.626 108.54C133.173 108.433 133.733 108.38 134.306 108.38C134.813 108.38 135.313 108.433 135.806 108.54C136.299 108.647 136.739 108.82 137.126 109.06C137.526 109.3 137.846 109.613 138.086 110C138.326 110.373 138.446 110.833 138.446 111.38V116.7ZM136.166 113.82C135.819 114.047 135.393 114.187 134.886 114.24C134.379 114.28 133.873 114.347 133.366 114.44C133.126 114.48 132.893 114.54 132.666 114.62C132.439 114.687 132.239 114.787 132.066 114.92C131.893 115.04 131.753 115.207 131.646 115.42C131.553 115.62 131.506 115.867 131.506 116.16C131.506 116.413 131.579 116.627 131.726 116.8C131.873 116.973 132.046 117.113 132.246 117.22C132.459 117.313 132.686 117.38 132.926 117.42C133.179 117.46 133.406 117.48 133.606 117.48C133.859 117.48 134.133 117.447 134.426 117.38C134.719 117.313 134.993 117.2 135.246 117.04C135.513 116.88 135.733 116.68 135.906 116.44C136.079 116.187 136.166 115.88 136.166 115.52V113.82ZM150.259 118.46C150.259 120.02 149.819 121.18 148.939 121.94C148.073 122.713 146.819 123.1 145.179 123.1C144.659 123.1 144.133 123.047 143.599 122.94C143.079 122.833 142.599 122.653 142.159 122.4C141.733 122.147 141.373 121.813 141.079 121.4C140.786 120.987 140.613 120.48 140.559 119.88H142.839C142.906 120.2 143.019 120.46 143.179 120.66C143.339 120.86 143.526 121.013 143.739 121.12C143.966 121.24 144.213 121.313 144.479 121.34C144.746 121.38 145.026 121.4 145.319 121.4C146.239 121.4 146.913 121.173 147.339 120.72C147.766 120.267 147.979 119.613 147.979 118.76V117.18H147.939C147.619 117.753 147.179 118.2 146.619 118.52C146.073 118.84 145.479 119 144.839 119C144.013 119 143.306 118.86 142.719 118.58C142.146 118.287 141.666 117.893 141.279 117.4C140.906 116.893 140.633 116.313 140.459 115.66C140.286 115.007 140.199 114.307 140.199 113.56C140.199 112.867 140.306 112.207 140.519 111.58C140.733 110.953 141.039 110.407 141.439 109.94C141.839 109.46 142.326 109.08 142.899 108.8C143.486 108.52 144.146 108.38 144.879 108.38C145.533 108.38 146.133 108.52 146.679 108.8C147.226 109.067 147.646 109.493 147.939 110.08H147.979V108.66H150.259V118.46ZM145.199 117.2C145.706 117.2 146.133 117.1 146.479 116.9C146.839 116.687 147.126 116.413 147.339 116.08C147.566 115.733 147.726 115.347 147.819 114.92C147.926 114.48 147.979 114.04 147.979 113.6C147.979 113.16 147.926 112.733 147.819 112.32C147.713 111.907 147.546 111.54 147.319 111.22C147.106 110.9 146.819 110.647 146.459 110.46C146.113 110.273 145.693 110.18 145.199 110.18C144.693 110.18 144.266 110.287 143.919 110.5C143.573 110.713 143.293 110.993 143.079 111.34C142.866 111.673 142.713 112.06 142.619 112.5C142.526 112.927 142.479 113.353 142.479 113.78C142.479 114.207 142.533 114.627 142.639 115.04C142.746 115.44 142.906 115.8 143.119 116.12C143.346 116.44 143.626 116.7 143.959 116.9C144.306 117.1 144.719 117.2 145.199 117.2ZM159.455 112.92C159.428 112.56 159.348 112.213 159.215 111.88C159.095 111.547 158.921 111.26 158.695 111.02C158.481 110.767 158.215 110.567 157.895 110.42C157.588 110.26 157.241 110.18 156.855 110.18C156.455 110.18 156.088 110.253 155.755 110.4C155.435 110.533 155.155 110.727 154.915 110.98C154.688 111.22 154.501 111.507 154.355 111.84C154.221 112.173 154.148 112.533 154.135 112.92H159.455ZM154.135 114.42C154.135 114.82 154.188 115.207 154.295 115.58C154.415 115.953 154.588 116.28 154.815 116.56C155.041 116.84 155.328 117.067 155.675 117.24C156.021 117.4 156.435 117.48 156.915 117.48C157.581 117.48 158.115 117.34 158.515 117.06C158.928 116.767 159.235 116.333 159.435 115.76H161.595C161.475 116.32 161.268 116.82 160.975 117.26C160.681 117.7 160.328 118.073 159.915 118.38C159.501 118.673 159.035 118.893 158.515 119.04C158.008 119.2 157.475 119.28 156.915 119.28C156.101 119.28 155.381 119.147 154.755 118.88C154.128 118.613 153.595 118.24 153.155 117.76C152.728 117.28 152.401 116.707 152.175 116.04C151.961 115.373 151.855 114.64 151.855 113.84C151.855 113.107 151.968 112.413 152.195 111.76C152.435 111.093 152.768 110.513 153.195 110.02C153.635 109.513 154.161 109.113 154.775 108.82C155.388 108.527 156.081 108.38 156.855 108.38C157.668 108.38 158.395 108.553 159.035 108.9C159.688 109.233 160.228 109.68 160.655 110.24C161.081 110.8 161.388 111.447 161.575 112.18C161.775 112.9 161.828 113.647 161.735 114.42H154.135Z" fill="#242527"/>
<circle cx="52.5" cy="57.5" r="27.5" fill="#DCF3DD"/>
<path d="M43.243 52.854L52.49 47.31C52.6454 47.2167 52.8233 47.1675 53.0045 47.1675C53.1857 47.1675 53.3636 47.2167 53.519 47.31L62.757 52.855C62.8311 52.8994 62.8925 52.9623 62.9351 53.0375C62.9776 53.1126 63 53.1976 63 53.284V66C63 66.2652 62.8946 66.5196 62.7071 66.7071C62.5196 66.8946 62.2652 67 62 67H44C43.7348 67 43.4804 66.8946 43.2929 66.7071C43.1054 66.5196 43 66.2652 43 66V53.283C43 53.1966 43.0224 53.1116 43.0649 53.0365C43.1075 52.9613 43.1689 52.8984 43.243 52.854ZM45 54.133V65H61V54.132L53.004 49.332L45 54.132V54.133ZM53.06 59.698L58.356 55.235L59.644 56.765L53.074 62.302L46.364 56.772L47.636 55.228L53.06 59.698V59.698Z" fill="#7ABE7D"/>
<path d="M22.4711 194C20.1614 208.644 23.9549 242.696 57.6062 261.751M57.6062 261.751C56.3458 261.305 53.0161 260.367 47.8713 263.288M57.6062 261.751C56.6033 261.453 54.8549 259.283 55.8843 252.981" stroke="#79797C"/>
<path d="M364.274 384C366.626 399.685 363.808 434.394 333.718 447.751M333.718 447.751C334.942 447.395 338.184 446.982 341.364 448.181M333.718 447.751C335.327 446.693 338.284 443.679 337.24 440.09" stroke="#79797C"/>
</svg>
