<svg width="20" height="20" fill="none" xmlns="http://www.w3.org/2000/svg"><path d="M14.902 16.08A9.125 9.125 0 0110 17.5C5.507 17.5 1.77 14.267.984 10a9.152 9.152 0 012.784-5.055L1.16 2.34l1.18-1.18 16.498 16.5-1.179 1.18-2.758-2.76zM4.946 6.126A7.47 7.47 0 002.686 10a7.504 7.504 0 0011 4.865l-1.69-1.69a3.75 3.75 0 01-5.17-5.172l-1.88-1.878zm5.816 5.815L8.06 9.238a2.083 2.083 0 002.701 2.701v.001zm6.577 1.887l-1.192-1.192A7.45 7.45 0 0017.314 10 7.504 7.504 0 007.96 4.448L6.645 3.133A9.157 9.157 0 0110 2.5c4.493 0 8.232 3.233 9.016 7.5a9.122 9.122 0 01-1.677 3.827zm-7.57-7.57a3.75 3.75 0 013.974 3.974L9.77 6.257z" fill="#B7B7BA"/></svg>