<svg width="30" height="30" fill="none" xmlns="http://www.w3.org/2000/svg"><circle cx="15" cy="15" r="15" fill="#DCF3DD"/><path d="M15 7.667l5.478 1.217a.667.667 0 01.522.65v6.659a4 4 0 01-1.781 3.328L15 22.333l-4.219-2.812A3.998 3.998 0 019 16.193V9.535c0-.313.217-.583.522-.651L15 7.667zm0 1.366l-4.667 1.036v6.124c0 .891.446 1.724 1.188 2.218L15 20.731l3.48-2.32a2.665 2.665 0 001.187-2.218V10.07L15 9.033zm2.968 3.448l.943.943-4.242 4.243-2.829-2.829.943-.943 1.885 1.886 3.3-3.3z" fill="#64A166"/></svg>