<svg width="38" height="58" fill="none" xmlns="http://www.w3.org/2000/svg"><path d="M.524 23.346a.5.5 0 00.952.308l-.952-.308zm23.59-21.86a.5.5 0 10-.229-.973l.23.974zM1.476 23.655c.98-3.024 3.3-7.79 7.054-12.192 3.753-4.399 8.917-8.406 15.585-9.975l-.23-.974c-6.932 1.631-12.268 5.79-16.115 10.3-3.845 4.507-6.226 9.39-7.246 12.533l.952.308zM13.038 35.81a.5.5 0 10.924.38l-.924-.38zm16.003-8.812a.5.5 0 00-.082-.996l.082.996zM13.962 36.19c1.101-2.673 5.68-8.408 15.08-9.192l-.084-.996c-9.8.816-14.688 6.814-15.92 9.808l.924.38zM16.879 51.515a.5.5 0 00.242.97l-.242-.97zM36.7 57.4a.5.5 0 00.6-.8l-.6.8zm-19.579-4.915c3.211-.803 11.718-.981 19.579 4.915l.6-.8c-8.139-6.104-16.966-5.95-20.421-5.085l.242.97z" fill="#79797C"/></svg>