<svg width="20" height="20" viewBox="0 0 20 20" fill="none" xmlns="http://www.w3.org/2000/svg">
<path d="M10 2.5C14.4934 2.5 18.2317 5.73333 19.0159 10C18.2325 14.2667 14.4934 17.5 10 17.5C5.50669 17.5 1.76836 14.2667 0.984192 10C1.76753 5.73333 5.50669 2.5 10 2.5ZM10 15.8333C11.6996 15.833 13.3487 15.2557 14.6774 14.196C16.0061 13.1363 16.9358 11.6569 17.3142 10C16.9344 8.34442 16.0041 6.86667 14.6755 5.80835C13.347 4.75004 11.6986 4.17377 10 4.17377C8.30144 4.17377 6.6531 4.75004 5.32451 5.80835C3.99591 6.86667 3.06566 8.34442 2.68586 10C3.06427 11.6569 3.99392 13.1363 5.32265 14.196C6.65137 15.2557 8.30047 15.833 10 15.8333V15.8333ZM10 13.75C9.00546 13.75 8.05164 13.3549 7.34838 12.6516C6.64511 11.9484 6.25003 10.9946 6.25003 10C6.25003 9.00544 6.64511 8.05161 7.34838 7.34835C8.05164 6.64509 9.00546 6.25 10 6.25C10.9946 6.25 11.9484 6.64509 12.6517 7.34835C13.3549 8.05161 13.75 9.00544 13.75 10C13.75 10.9946 13.3549 11.9484 12.6517 12.6516C11.9484 13.3549 10.9946 13.75 10 13.75ZM10 12.0833C10.5526 12.0833 11.0825 11.8638 11.4732 11.4731C11.8639 11.0824 12.0834 10.5525 12.0834 10C12.0834 9.44747 11.8639 8.91756 11.4732 8.52686C11.0825 8.13616 10.5526 7.91667 10 7.91667C9.44749 7.91667 8.91759 8.13616 8.52689 8.52686C8.13619 8.91756 7.91669 9.44747 7.91669 10C7.91669 10.5525 8.13619 11.0824 8.52689 11.4731C8.91759 11.8638 9.44749 12.0833 10 12.0833Z" fill="#B7B7BA"/>
</svg>
