<svg width="20" height="20" viewBox="0 0 20 20" fill="none" xmlns="http://www.w3.org/2000/svg">
<path d="M14.9019 16.0809C13.4362 17.0105 11.7358 17.5028 10.0002 17.5001C5.50688 17.5001 1.76854 14.2667 0.984375 10.0001C1.34273 8.05899 2.31907 6.2858 3.76771 4.94506L1.16021 2.34006L2.33938 1.16089L18.8385 17.6609L17.6594 18.8392L14.901 16.0809H14.9019ZM4.94604 6.12506C3.81355 7.15471 3.02464 8.50737 2.68604 10.0001C2.94629 11.1388 3.46876 12.201 4.21188 13.1022C4.95499 14.0034 5.89823 14.7187 6.9665 15.1911C8.03477 15.6636 9.19858 15.8801 10.3653 15.8235C11.532 15.7669 12.6694 15.4387 13.6869 14.8651L11.9969 13.1751C11.2775 13.6282 10.4254 13.8235 9.58041 13.7288C8.73544 13.634 7.94774 13.255 7.34652 12.6537C6.74529 12.0525 6.36623 11.2648 6.27151 10.4199C6.17679 9.57489 6.37203 8.72281 6.82521 8.00339L4.94604 6.12506ZM10.7619 11.9401L8.06021 9.23839C7.91193 9.61583 7.87703 10.0284 7.9598 10.4253C8.04256 10.8223 8.23939 11.1865 8.52614 11.4733C8.81289 11.76 9.1771 11.9569 9.57409 12.0396C9.97108 12.1224 10.3836 12.0875 10.761 11.9392L10.7619 11.9401ZM17.3394 13.8267L16.1469 12.6351C16.7039 11.8411 17.1005 10.946 17.3144 10.0001C17.0879 9.00816 16.6621 8.07268 16.0628 7.25047C15.4636 6.42826 14.7034 5.73649 13.8284 5.21723C12.9535 4.69796 11.9821 4.36203 10.9733 4.22986C9.96452 4.09769 8.93938 4.17204 7.96021 4.44839L6.64521 3.13339C7.68438 2.72506 8.81688 2.50006 10.0002 2.50006C14.4935 2.50006 18.2319 5.73339 19.016 10.0001C18.7607 11.3881 18.1868 12.698 17.3394 13.8267V13.8267ZM9.76938 6.25672C10.2998 6.22394 10.8311 6.30428 11.3282 6.4924C11.8252 6.68053 12.2766 6.97215 12.6523 7.34793C13.0281 7.72371 13.3197 8.17508 13.5079 8.6721C13.696 9.16913 13.7763 9.70046 13.7435 10.2309L9.76854 6.25672H9.76938Z" fill="#B7B7BA"/>
</svg>
