<?xml version="1.0" encoding="utf-8"?>
<!-- Generator: Adobe Illustrator 26.5.0, SVG Export Plug-In . SVG Version: 6.00 Build 0)  -->
<svg version="1.1" id="Layer_1" xmlns="http://www.w3.org/2000/svg" xmlns:xlink="http://www.w3.org/1999/xlink" x="0px" y="0px"
	 viewBox="0 0 39.1689911 38.805336" enable-background="new 0 0 39.1689911 38.805336" xml:space="preserve">
<g>
	<g>
		<path fill="#416AF7" d="M10.2259369,15.964385c0.1818333-1.620574,1.2070456-2.8302565,2.3992624-2.9204769
			c4.6395311-0.3510761,9.2790632-0.3510761,13.9186449,0c1.1921654,0.0902205,2.2173786,1.2999029,2.3992119,2.9204769
			c0.0675774,0.6025782,0.1150513,1.2051554,0.1470985,1.8077326h8.4584255
			C36.7239609,8.5729733,28.9982929,1.3617021,19.5845222,1.3617021c-9.4138212,0-17.1394901,7.2112713-17.9641094,16.4104156
			h8.4584255C10.1108856,17.1695404,10.1583595,16.5669632,10.2259369,15.964385z"/>
		<path fill="#416AF7" d="M28.9430561,22.8409023c-0.1818333,1.6206245-1.2070465,2.830307-2.3992119,2.9205265
			c-4.6395817,0.3510761-9.2791138,0.3510761-13.9186449,0c-1.1922169-0.0902195-2.2174292-1.299902-2.3992624-2.9205265
			c-0.0675774-0.6025276-0.1150513-1.2050056-0.1470985-1.8075333H1.6204132
			c0.8247679,9.1991444,8.5503874,16.410265,17.9641094,16.410265s17.1392899-7.2111206,17.9640579-16.410265h-8.4584255
			C29.0581074,21.6358967,29.0106335,22.2383747,28.9430561,22.8409023z"/>
		<path fill="#416AF7" d="M26.1413631,16.8436928c-0.2803154-0.6797581-0.8837376-1.1534004-1.570364-1.1962461
			c-3.3243523-0.2073116-6.648653-0.2073116-9.9729557,0c-0.686676,0.0428457-1.2900496,0.5165377-1.570363,1.1962957
			l6.5568914,2.3320827L26.1413631,16.8436928z"/>
		<path fill="#416AF7" d="M12.8789396,21.4331131c0.1302786,0.9570885,0.8648767,1.6714821,1.7191038,1.7247276
			c3.3243027,0.2073612,6.6486034,0.2073612,9.9729557,0c0.8541775-0.0532455,1.5888252-0.7676888,1.7190552-1.7247276
			c0.1473465-1.0825386,0.1713829-2.1651268,0.083004-3.2476654l-6.5638084,2.3346195
			c-0.0727024,0.025877-0.1486912,0.0386658-0.224678,0.0386658c-0.0759888,0-0.1519756-0.0127888-0.2247295-0.0386658
			l-6.5639067-2.3345699C12.7075567,19.2680359,12.7315922,20.3506241,12.8789396,21.4331131z"/>
	</g>
</g>
</svg>
