<svg width="152" height="18" viewBox="0 0 152 18" fill="none" xmlns="http://www.w3.org/2000/svg">
<path d="M0.210938 17H4.07813V12.0312H6.70313C10.3672 12.0312 12.6562 9.85937 12.6562 6.53906C12.6562 3.25 10.4141 1 6.82031 1H0.210938V17ZM4.07813 8.98437V4.11719H5.98438C7.71875 4.11719 8.64844 5.05469 8.64844 6.53906C8.64844 8.01562 7.71875 8.98437 5.98438 8.98437H4.07813ZM14.5625 17H18.4297V11.5234H20.4141L23.3359 17H27.5547L24.2344 10.9062C25.9922 10.1094 27.0078 8.53906 27.0078 6.32812C27.0078 3.03906 24.7656 1 21.1719 1H14.5625V17ZM18.4297 8.47656V4.11719H20.3359C22.0703 4.11719 23 4.84375 23 6.32812C23 7.8125 22.0703 8.47656 20.3359 8.47656H18.4297ZM44.2305 9C44.2305 3.71094 40.8867 0.781249 36.5898 0.781249C32.2773 0.781249 28.957 3.71094 28.957 9C28.957 14.2656 32.2773 17.2187 36.5898 17.2187C40.8867 17.2187 44.2305 14.2891 44.2305 9ZM40.2773 9C40.2773 12.1328 38.9023 13.8281 36.5898 13.8281C34.2852 13.8281 32.9023 12.1328 32.9023 9C32.9023 5.86719 34.2852 4.17187 36.5898 4.17187C38.9023 4.17187 40.2773 5.86719 40.2773 9ZM49.5 1H45.1406L49.9766 9L45.0156 17H49.4219L52.4219 11.8906H52.5469L55.5469 17H59.9844L55 9L59.8281 1H55.5L52.5469 6.05469H52.4219L49.5 1ZM65.6953 1H61.8281V17H65.6953V1ZM68.123 17H79.2793V13.8594H71.9902V10.5703H78.709V7.42187H71.9902V4.14062H79.2793V1H68.123V17ZM87.6152 17C92.4902 17 95.5137 13.9922 95.5137 8.99219C95.5137 4 92.4902 1 87.6074 1H81.7012V17H87.6152ZM85.5684 13.7031V4.29687H87.4121C90.1621 4.29687 91.6387 5.54687 91.6387 8.99219C91.6387 12.4531 90.1621 13.7031 87.4668 13.7031H85.5684Z" fill="#28374C"/>
<path d="M97.7715 1V17H101.537V7.11719H101.67L105.514 16.8984H107.92L111.764 7.17187H111.896V17H115.662V1H110.873L106.811 10.9062H106.623L102.561 1H97.7715ZM121.535 17L122.59 13.6406H128.113L129.168 17H133.324L127.926 1H122.777L117.379 17H121.535ZM123.512 10.7031L125.285 5.03125H125.41L127.191 10.7031H123.512ZM138.914 1H135.047V17H138.914V1ZM141.342 17H151.865V13.8594H145.209V1H141.342V17Z" fill="#3982F5"/>
</svg>
