<svg width="177" height="42" viewBox="0 0 177 42" fill="none" xmlns="http://www.w3.org/2000/svg">
<path d="M49 13H56.6468C57.8768 13 58.8801 13.1914 59.6569 13.5742C60.4338 13.957 61.0326 14.4355 61.4534 15.0096C61.8742 15.5838 62.1574 16.2102 62.3031 16.8887C62.4649 17.5673 62.5458 18.1937 62.5458 18.7679C62.5458 19.342 62.4649 19.9684 62.3031 20.647C62.1574 21.3082 61.8742 21.9258 61.4534 22.5001C61.0326 23.0742 60.4338 23.5527 59.6569 23.9354C58.8801 24.3008 57.8768 24.4836 56.6468 24.4836H52.0345V31.6346H49V13ZM52.0345 21.8214H56.4769C56.8167 21.8214 57.1647 21.7693 57.5207 21.6649C57.8768 21.5604 58.2005 21.3952 58.4918 21.169C58.7992 20.9254 59.0419 20.6121 59.22 20.2294C59.4142 19.8292 59.5113 19.3333 59.5113 18.7417C59.5113 18.1327 59.4304 17.6282 59.2686 17.228C59.1068 16.8278 58.8883 16.5146 58.6131 16.2885C58.338 16.0449 58.0224 15.8796 57.6664 15.7926C57.3104 15.7056 56.93 15.662 56.5254 15.662H52.0345V21.8214ZM64.0749 18.1414H66.6725V20.7514H66.7209C66.8019 20.386 66.9557 20.0294 67.1823 19.6813C67.425 19.3333 67.7082 19.0202 68.0318 18.7417C68.3717 18.446 68.744 18.211 69.1485 18.0371C69.5533 17.8631 69.9659 17.7762 70.3866 17.7762C70.7103 17.7762 70.9288 17.7849 71.042 17.8022C71.1715 17.8196 71.301 17.837 71.4305 17.8544V20.7253C71.2363 20.6904 71.034 20.6644 70.8235 20.647C70.6294 20.6121 70.4352 20.5948 70.2409 20.5948C69.7717 20.5948 69.3266 20.6992 68.9058 20.908C68.5012 21.0994 68.1452 21.3952 67.8376 21.7953C67.5302 22.1781 67.2875 22.6566 67.1094 23.2308C66.9314 23.8049 66.8424 24.4662 66.8424 25.2144V31.6346H64.0749V18.1414ZM77.2078 32C76.2043 32 75.3061 31.8261 74.5132 31.478C73.7363 31.1127 73.0728 30.6168 72.5225 29.9904C71.9885 29.364 71.5757 28.6159 71.2844 27.7459C71.0093 26.8759 70.8718 25.919 70.8718 24.875C70.8718 23.8484 71.0093 22.9002 71.2844 22.0302C71.5757 21.1603 71.9885 20.4121 72.5225 19.7858C73.0728 19.1594 73.7363 18.6722 74.5132 18.3242C75.3061 17.9588 76.2043 17.7762 77.2078 17.7762C78.211 17.7762 79.1013 17.9588 79.8781 18.3242C80.671 18.6722 81.3346 19.1594 81.8686 19.7858C82.4189 20.4121 82.8315 21.1603 83.1067 22.0302C83.3981 22.9002 83.5437 23.8484 83.5437 24.875C83.5437 25.919 83.3981 26.8759 83.1067 27.7459C82.8315 28.6159 82.4189 29.364 81.8686 29.9904C81.3346 30.6168 80.671 31.1127 79.8781 31.478C79.1013 31.8261 78.211 32 77.2078 32ZM77.2078 29.6511C77.8227 29.6511 78.3567 29.5119 78.81 29.2335C79.2631 28.9552 79.6353 28.5898 79.9266 28.1374C80.2179 27.6849 80.4282 27.1804 80.5578 26.6237C80.7035 26.0494 80.7762 25.4666 80.7762 24.875C80.7762 24.3008 80.7035 23.7267 80.5578 23.1525C80.4282 22.5783 80.2179 22.0737 79.9266 21.6388C79.6353 21.1863 79.2631 20.8209 78.81 20.5426C78.3567 20.2643 77.8227 20.125 77.2078 20.125C76.5928 20.125 76.0586 20.2643 75.6055 20.5426C75.1523 20.8209 74.7802 21.1863 74.4889 21.6388C74.1976 22.0737 73.979 22.5783 73.8334 23.1525C73.7039 23.7267 73.6392 24.3008 73.6392 24.875C73.6392 25.4666 73.7039 26.0494 73.8334 26.6237C73.979 27.1804 74.1976 27.6849 74.4889 28.1374C74.7802 28.5898 75.1523 28.9552 75.6055 29.2335C76.0586 29.5119 76.5928 29.6511 77.2078 29.6511ZM88.4903 24.5357L84.145 18.1414H87.4949L90.1173 22.2912L92.8597 18.1414H96.0641L91.7919 24.3792L96.5985 31.6346H93.2731L90.0925 26.6497L87.0101 31.6346H83.7567L88.4903 24.5357ZM97.4998 13H100.267V15.8187H97.4998V13ZM97.4998 18.1414H100.267V31.6346H97.4998V18.1414ZM111.172 23.7005C111.139 23.2308 111.042 22.7784 110.881 22.3434C110.735 21.9085 110.524 21.5344 110.249 21.2211C109.99 20.8906 109.666 20.6297 109.278 20.4382C108.906 20.2294 108.485 20.125 108.015 20.125C107.53 20.125 107.085 20.2206 106.681 20.4121C106.292 20.586 105.952 20.8384 105.661 21.169C105.386 21.4821 105.159 21.8562 104.981 22.2912C104.82 22.7261 104.731 23.1959 104.715 23.7005H111.172ZM104.715 25.658C104.715 26.1799 104.779 26.6845 104.908 27.1717C105.054 27.6588 105.265 28.0852 105.54 28.4506C105.815 28.816 106.162 29.1118 106.584 29.338C107.004 29.5467 107.506 29.6511 108.089 29.6511C108.898 29.6511 109.545 29.4684 110.031 29.1031C110.533 28.7203 110.905 28.1547 111.147 27.4066H113.77C113.624 28.1374 113.372 28.7898 113.017 29.364C112.66 29.9382 112.232 30.4254 111.73 30.8256C111.228 31.2083 110.662 31.4954 110.031 31.6869C109.415 31.8956 108.769 32 108.089 32C107.101 32 106.228 31.8261 105.467 31.478C104.706 31.13 104.058 30.6428 103.525 30.0165C103.006 29.3901 102.611 28.642 102.335 27.772C102.076 26.902 101.946 25.945 101.946 24.9011C101.946 23.9442 102.084 23.0394 102.36 22.1868C102.65 21.3168 103.055 20.56 103.573 19.9162C104.107 19.255 104.746 18.733 105.491 18.3503C106.236 17.9675 107.077 17.7762 108.015 17.7762C109.003 17.7762 109.885 18.0022 110.662 18.4547C111.455 18.8896 112.11 19.4725 112.629 20.2033C113.146 20.9341 113.518 21.778 113.745 22.735C113.988 23.6745 114.052 24.6489 113.939 25.658H104.715ZM127.137 31.6346H124.515V29.8078H124.467C124.094 30.5907 123.552 31.1561 122.84 31.5041C122.128 31.8347 121.375 32 120.582 32C119.596 32 118.729 31.8174 117.985 31.452C117.257 31.0692 116.65 30.5559 116.164 29.9121C115.679 29.2683 115.314 28.5115 115.071 27.6415C114.83 26.7541 114.708 25.8058 114.708 24.7967C114.708 23.5788 114.862 22.5261 115.169 21.6388C115.476 20.7514 115.882 20.0207 116.383 19.4464C116.901 18.8722 117.484 18.4547 118.13 18.1937C118.794 17.9154 119.466 17.7762 120.146 17.7762C120.533 17.7762 120.931 17.8196 121.335 17.9066C121.739 17.9761 122.128 18.098 122.501 18.272C122.872 18.446 123.212 18.6722 123.52 18.9506C123.844 19.2115 124.111 19.5248 124.321 19.8902H124.369V13H127.137V31.6346ZM117.475 25.0316C117.475 25.6058 117.539 26.1712 117.669 26.7281C117.815 27.2848 118.025 27.7807 118.301 28.2157C118.592 28.6506 118.956 28.9986 119.393 29.2596C119.83 29.5206 120.348 29.6511 120.947 29.6511C121.562 29.6511 122.087 29.5119 122.524 29.2335C122.977 28.9552 123.341 28.5898 123.617 28.1374C123.908 27.6849 124.119 27.1804 124.248 26.6237C124.394 26.0494 124.467 25.4666 124.467 24.875C124.467 23.3787 124.151 22.2129 123.52 21.3778C122.904 20.5426 122.063 20.125 120.995 20.125C120.348 20.125 119.797 20.2729 119.345 20.5687C118.907 20.847 118.544 21.2211 118.252 21.6909C117.976 22.1434 117.775 22.6653 117.645 23.2569C117.532 23.831 117.475 24.4226 117.475 25.0316ZM129.766 13H134.038L138.821 27.5893H138.87L143.53 13H147.754V31.6346H144.865V17.2541H144.817L140.011 31.6346H137.51L132.704 17.2541H132.655V31.6346H129.766V13ZM160.783 28.6333C160.783 28.9986 160.823 29.2596 160.904 29.4162C161.001 29.5729 161.18 29.6511 161.438 29.6511C161.52 29.6511 161.617 29.6511 161.73 29.6511C161.843 29.6511 161.973 29.6337 162.118 29.5989V31.6608C162.021 31.6956 161.891 31.7303 161.73 31.7651C161.584 31.8174 161.43 31.8608 161.269 31.8956C161.107 31.9305 160.945 31.9566 160.783 31.9739C160.621 31.9913 160.484 32 160.37 32C159.803 32 159.334 31.8782 158.963 31.6346C158.59 31.391 158.347 30.9648 158.234 30.3558C157.684 30.93 157.004 31.3476 156.194 31.6085C155.402 31.8695 154.633 32 153.888 32C153.322 32 152.781 31.913 152.262 31.739C151.744 31.5825 151.283 31.3476 150.878 31.0343C150.49 30.7038 150.174 30.2948 149.931 29.8078C149.704 29.3031 149.592 28.7203 149.592 28.059C149.592 27.2239 149.729 26.5453 150.005 26.0234C150.296 25.5014 150.668 25.0926 151.121 24.7967C151.591 24.5009 152.108 24.2921 152.675 24.1703C153.258 24.0311 153.84 23.9267 154.423 23.8572C154.924 23.7528 155.402 23.6832 155.855 23.6484C156.307 23.5961 156.705 23.5179 157.044 23.4135C157.4 23.3091 157.676 23.1525 157.87 22.9437C158.08 22.7175 158.185 22.3869 158.185 21.9519C158.185 21.5692 158.097 21.256 157.919 21.0124C157.757 20.7688 157.546 20.586 157.287 20.4643C157.044 20.3251 156.769 20.2381 156.462 20.2033C156.155 20.1511 155.863 20.125 155.588 20.125C154.811 20.125 154.172 20.299 153.67 20.647C153.169 20.9951 152.885 21.5344 152.821 22.2651H150.053C150.102 21.3952 150.296 20.6731 150.635 20.0989C150.975 19.5248 151.404 19.0637 151.922 18.7157C152.457 18.3676 153.054 18.1241 153.719 17.9849C154.383 17.8457 155.062 17.7762 155.758 17.7762C156.373 17.7762 156.98 17.8457 157.579 17.9849C158.177 18.1241 158.711 18.3503 159.181 18.6635C159.667 18.9766 160.054 19.3855 160.346 19.8902C160.637 20.3772 160.783 20.9775 160.783 21.6909V28.6333ZM158.016 24.875C157.594 25.1708 157.077 25.3536 156.462 25.4231C155.846 25.4753 155.232 25.5623 154.617 25.6841C154.326 25.7363 154.043 25.8145 153.767 25.919C153.492 26.006 153.249 26.1365 153.039 26.3104C152.828 26.4671 152.659 26.6845 152.529 26.963C152.416 27.2239 152.359 27.5458 152.359 27.9285C152.359 28.2591 152.448 28.5376 152.626 28.7637C152.805 28.9899 153.015 29.1726 153.258 29.3119C153.517 29.4336 153.791 29.5206 154.083 29.5729C154.39 29.625 154.666 29.6511 154.909 29.6511C155.215 29.6511 155.548 29.6077 155.904 29.5206C156.259 29.4336 156.592 29.2857 156.898 29.077C157.223 28.8682 157.49 28.6072 157.699 28.2939C157.91 27.9635 158.016 27.5632 158.016 27.0935V24.875ZM163.105 13H165.872V15.8187H163.105V13ZM163.105 18.1414H165.872V31.6346H163.105V18.1414ZM168.233 13H171V31.6346H168.233V13Z" fill="#242527"/>
<path d="M13.3413 16.0171C13.5387 14.2396 14.6516 12.9128 15.9458 12.8138C20.982 12.4287 26.0181 12.4287 31.0543 12.8138C32.3484 12.9128 33.4613 14.2396 33.6587 16.0171C33.732 16.6781 33.7836 17.3391 33.8184 18H43C42.1048 7.90977 33.7187 0 23.5 0C13.2813 0 4.89518 7.90977 4 18H13.1816C13.2164 17.3391 13.268 16.6781 13.3413 16.0171Z" fill="#416AF7"/>
<path d="M33.6587 23.9826C33.4613 25.7602 32.3484 27.0871 31.0543 27.1861C26.0181 27.5712 20.982 27.5712 15.9458 27.1861C14.6516 27.0871 13.5387 25.7602 13.3413 23.9826C13.268 23.3218 13.2164 22.6609 13.1816 22H4C4.89528 32.0903 13.2814 40 23.5 40C33.7186 40 42.1047 32.0903 43 22H33.8184C33.7836 22.6609 33.732 23.3218 33.6587 23.9826Z" fill="#416AF7"/>
<path d="M30 17.4677C29.7007 16.7297 29.0565 16.2154 28.3234 16.1688C24.7744 15.9437 21.2255 15.9437 17.6765 16.1688C16.9434 16.2154 16.2993 16.7298 16 17.4678L23 20L30 17.4677Z" fill="#416AF7"/>
<path d="M16.1475 22.1666C16.2904 23.0999 17.0958 23.7965 18.0324 23.8484C21.6775 24.0505 25.3225 24.0505 28.9676 23.8484C29.9042 23.7965 30.7097 23.0998 30.8526 22.1666C31.0141 21.1111 31.0405 20.0555 30.9436 19L23.7464 21.2764C23.6667 21.3016 23.5834 21.3141 23.5 21.3141C23.4168 21.3141 23.3335 21.3016 23.2537 21.2764L16.0564 19.0001C15.9595 20.0556 15.9859 21.1112 16.1475 22.1666Z" fill="#416AF7"/>
</svg>
