<svg width="38" height="38" viewBox="0 0 38 38" fill="none" xmlns="http://www.w3.org/2000/svg">
<path d="M15.7857 19L2.60714 32.1786C1.71954 33.0662 1.71954 34.5053 2.60714 35.3929V35.3929C3.49474 36.2805 4.93383 36.2805 5.82143 35.3929L19 22.2143" stroke="#3982F5" stroke-width="2" stroke-linecap="round" stroke-linejoin="round"/>
<path d="M16.9509 19.359L16.8233 20.3508L16.9509 19.359L10.533 18.5329L15.7398 14.6908C16.3575 14.235 16.6598 13.4658 16.5178 12.7114L15.3202 6.35227L20.5832 10.117C21.2076 10.5636 22.0326 10.6135 22.7062 10.2452L28.384 7.14115L26.4299 13.31C26.1981 14.0418 26.4056 14.8418 26.964 15.3686L31.6707 19.8093L25.1999 19.8572C24.4323 19.8628 23.7356 20.3074 23.4071 21.0013L20.6381 26.8498L18.5931 20.7106C18.3505 19.9822 17.7124 19.457 16.9509 19.359Z" stroke="#3982F5" stroke-width="2"/>
<line x1="11.1623" y1="11.8179" x2="8.04706" y2="11.0391" stroke="#3982F5" stroke-width="2" stroke-linecap="round" stroke-linejoin="round"/>
<line x1="22.2222" y1="1.97925" x2="22.2222" y2="5.02879" stroke="#3982F5" stroke-width="2" stroke-linecap="round" stroke-linejoin="round"/>
<line x1="32" y1="13" x2="35" y2="13" stroke="#3982F5" stroke-width="2" stroke-linecap="round" stroke-linejoin="round"/>
<line x1="28.6826" y1="25.9796" x2="27.2643" y2="23.8521" stroke="#3982F5" stroke-width="2" stroke-linecap="round" stroke-linejoin="round"/>
</svg>
