<svg width="32" height="32" viewBox="0 0 32 32" fill="none" xmlns="http://www.w3.org/2000/svg">
<path d="M5.77063 11.824L15.1266 20.1613C15.3708 20.3787 15.6863 20.4989 16.0133 20.4989C16.3402 20.4989 16.6558 20.3787 16.9 20.1613L26.2453 11.8333L16.7293 5.61333C16.5124 5.47163 16.259 5.39617 16 5.39617C15.7409 5.39617 15.4875 5.47163 15.2706 5.61333L5.77063 11.824ZM26.6666 12.1093V15.0293L18.6746 22.152C17.9419 22.805 16.9947 23.1658 16.0133 23.1658C15.0318 23.1658 14.0847 22.805 13.352 22.152L5.33329 15.0053V12.1107V26.6667H26.6666V12.1093ZM3.87463 9.87733L13.812 3.38133C14.4625 2.95624 15.2228 2.72986 16 2.72986C16.7771 2.72986 17.5374 2.95624 18.188 3.38133L28.1253 9.87733C28.4962 10.1197 28.8009 10.4507 29.0118 10.8404C29.2228 11.2301 29.3332 11.6662 29.3333 12.1093V26.6667C29.3333 27.3739 29.0523 28.0522 28.5522 28.5523C28.0521 29.0524 27.3739 29.3333 26.6666 29.3333H5.33329C4.62605 29.3333 3.94777 29.0524 3.44767 28.5523C2.94758 28.0522 2.66663 27.3739 2.66663 26.6667V12.1093C2.66668 11.6662 2.77716 11.2301 2.98807 10.8404C3.19899 10.4507 3.50368 10.1197 3.87463 9.87733Z" fill="#3982F5"/>
<circle cx="25" cy="7" r="5.5" fill="#92C1F7" stroke="white" stroke-width="3"/>
</svg>
