<svg width="1110" height="338" viewBox="0 0 1110 338" fill="none" xmlns="http://www.w3.org/2000/svg">
<g clip-path="url(#clip0)">
<rect width="1110" height="338" rx="24" fill="#92C1F7"/>
<rect x="992.225" y="66.7208" width="372.832" height="374.894" rx="47" transform="rotate(-15 992.225 66.7208)" stroke="white" stroke-width="2"/>
<rect x="991" y="192.715" width="52.9901" height="53.2816" rx="11" transform="rotate(-15 991 192.715)" fill="white"/>
<g clip-path="url(#clip1)">
<path d="M1030.34 198.226C1026.38 195.939 1021.3 197.301 1019.02 201.261C1017.45 203.966 1017.56 207.308 1019.24 209.913L1012.64 221.351C1012.54 221.524 1012.51 221.729 1012.56 221.923L1013.67 226.042C1013.78 226.444 1014.19 226.683 1014.59 226.575L1018.71 225.471C1018.9 225.419 1019.07 225.293 1019.17 225.12L1019.92 223.814C1020.04 223.614 1020.05 223.373 1019.97 223.159L1019.55 222.087L1021.04 221.532C1021.38 221.406 1021.58 221.057 1021.52 220.699L1021.25 219.128L1022.39 218.96C1022.61 218.933 1022.8 218.808 1022.91 218.628C1023.03 218.448 1023.07 218.227 1023.01 218.019L1022.65 216.663L1023.98 216.307C1024.17 216.255 1024.34 216.129 1024.44 215.955L1025.81 213.612C1028.91 213.773 1031.82 212.26 1033.38 209.553C1035.66 205.594 1034.3 200.512 1030.34 198.226ZM1029.66 203.927C1029.04 205.007 1027.65 205.378 1026.57 204.754C1025.49 204.131 1025.12 202.746 1025.75 201.665C1026.37 200.585 1027.75 200.214 1028.84 200.838C1029.92 201.461 1030.29 202.847 1029.66 203.927Z" fill="#92C1F7"/>
</g>
<rect x="924.225" y="59.9781" width="14.5016" height="14.5924" rx="6" transform="rotate(-15 924.225 59.9781)" stroke="white" stroke-width="2"/>
<rect x="-161.775" y="13.9845" width="281.121" height="282.679" rx="54" transform="rotate(-15 -161.775 13.9845)" stroke="white" stroke-width="2"/>
<rect x="127" y="86.9346" width="46.113" height="46.3667" rx="17" transform="rotate(-15 127 86.9346)" fill="white"/>
<g clip-path="url(#clip2)">
<path d="M159.418 98.5222L158.798 98.6885L158.133 96.2071C157.399 93.4703 154.577 91.8409 151.84 92.5742C149.104 93.3076 147.474 96.1297 148.208 98.8666L148.872 101.348L148.252 101.514C147.226 101.789 146.615 102.847 146.89 103.874L149.217 112.558C149.492 113.585 150.551 114.196 151.576 113.921L162.742 110.929C163.768 110.654 164.38 109.596 164.105 108.569L161.778 99.8846C161.503 98.8581 160.444 98.2474 159.418 98.5222ZM149.862 98.4234C149.373 96.5988 150.459 94.7174 152.284 94.2285C154.108 93.7396 155.99 94.8258 156.479 96.6504L157.143 99.1317L150.527 100.905L149.862 98.4234ZM156.374 106.183L156.878 108.068C157.001 108.524 156.73 108.994 156.273 109.116C155.816 109.239 155.347 108.967 155.224 108.511L154.719 106.627C154.15 106.472 153.674 106.034 153.511 105.424C153.266 104.512 153.809 103.571 154.722 103.327C155.634 103.082 156.575 103.625 156.819 104.538C156.982 105.147 156.789 105.765 156.374 106.183Z" fill="#92C1F7"/>
</g>
<rect x="233.225" y="240.746" width="25.1982" height="25.1982" rx="7" transform="rotate(-15 233.225 240.746)" stroke="white" stroke-width="2"/>
</g>
<defs>
<clipPath id="clip0">
<rect width="1110" height="338" rx="24" fill="white"/>
</clipPath>
<clipPath id="clip1">
<rect width="25.7313" height="25.7313" fill="white" transform="translate(1007.2 201.916) rotate(-15)"/>
</clipPath>
<clipPath id="clip2">
<rect width="20.5508" height="20.5508" fill="white" transform="translate(141.915 95.2336) rotate(-15)"/>
</clipPath>
</defs>
</svg>
